<?xml version="1.0" encoding="UTF-8" standalone="no"?>
<!-- Created with Inkscape (http://www.inkscape.org/) -->

<svg
   xmlns:dc="http://purl.org/dc/elements/1.1/"
   xmlns:cc="http://creativecommons.org/ns#"
   xmlns:rdf="http://www.w3.org/1999/02/22-rdf-syntax-ns#"
   xmlns:svg="http://www.w3.org/2000/svg"
   xmlns="http://www.w3.org/2000/svg"
   xmlns:sodipodi="http://sodipodi.sourceforge.net/DTD/sodipodi-0.dtd"
   xmlns:inkscape="http://www.inkscape.org/namespaces/inkscape"
   width="1280"
   height="1130"
   viewBox="0 0 1280 1130"
   id="svg4491"
   version="1.1"
   inkscape:version="0.91 r13725"
   sodipodi:docname="stage1-bgs-template.svg">
  <defs
     id="defs4493" />
  <sodipodi:namedview
     id="base"
     pagecolor="#ffffff"
     bordercolor="#666666"
     borderopacity="1.0"
     inkscape:pageopacity="0.0"
     inkscape:pageshadow="2"
     inkscape:zoom="0.35"
     inkscape:cx="645.79451"
     inkscape:cy="618.96846"
     inkscape:document-units="px"
     inkscape:current-layer="layer1"
     showgrid="false"
     units="px"
     inkscape:window-width="1366"
     inkscape:window-height="706"
     inkscape:window-x="-8"
     inkscape:window-y="-8"
     inkscape:window-maximized="1">
    <inkscape:grid
       type="xygrid"
       id="grid5120" />
  </sodipodi:namedview>
  <metadata
     id="metadata4496">
    <rdf:RDF>
      <cc:Work
         rdf:about="">
        <dc:format>image/svg+xml</dc:format>
        <dc:type
           rdf:resource="http://purl.org/dc/dcmitype/StillImage" />
        <dc:title></dc:title>
      </cc:Work>
    </rdf:RDF>
  </metadata>
  <g
     inkscape:label="Layer 1"
     inkscape:groupmode="layer"
     id="layer1"
     style="display:inline"
     transform="translate(0,77.637839)">
    <path
       style="fill:#000000;fill-opacity:1;fill-rule:evenodd;stroke:none;stroke-width:1px;stroke-linecap:butt;stroke-linejoin:miter;stroke-opacity:1"
       d="m 249.291,-77.628029 a 29.999997,34.898113 0 0 1 15.709,4.66601 29.999997,34.898113 0 0 1 15.00002,30.222659 l 0,129.542963 c 28.52862,-5.68315 57.87962,-8.76415 88.20502,-8.75781 69.6475,0.0146 144.4173,16.25335 226.08012,54.316397 6.81979,2.26444 13.71638,4.42121 20.71484,6.43555 l 0,-99.292957 A 30,32.142998 0 0 1 630,11.66884 30,32.142998 0 0 1 644.29102,7.371959 30,32.142998 0 0 1 660,11.66884 30,32.142998 0 0 1 675,39.504783 l 0,111.294907 c 4.9141,0.5085 9.9134,0.89901 15,1.16601 l 0,-174.1953 a 30,40.408341 0 0 1 15,-34.994139 30,40.408341 0 0 1 14.29102,-5.40234 30,40.408341 0 0 1 15.70898,5.40234 30,40.408341 0 0 1 15,34.994139 l 0,171.38476 c 21.52148,-3.06101 44.69673,-8.43737 70,-16.79297 54.93845,-20.95532 111.71764,-32.34137 170,-35.908197 l 0,-114.193353 a 30,34.898113 0 0 1 15,-30.22266 30,34.898113 0 0 1 14.291,-4.666019 30,34.898113 0 0 1 15.709,4.666019 30,34.898113 0 0 1 15,30.22266 l 0,113.195313 c 32.9222,0.86642 66.2758,3.9731 100,9.009747 l 0,-79.042937 a 29.999999,33.061371 0 0 1 15,-28.630874 29.999999,33.061371 0 0 1 14.291,-4.41993 29.999999,33.061371 0 0 1 15.709,4.41993 29.999999,33.061371 0 0 1 15,28.630874 l 0,89.902317 c 23.1834,4.89984 46.522,10.60575 70,17.03711 l 0,319.99997 -1280,0 0,-319.99997 c 29.128,13.69516 60.9368,17.23069 95,12.74805 L 95,15.42275 a 30,33.061372 0 0 1 15,-28.63086 30,33.061372 0 0 1 14.291,-4.41993 30,33.061372 0 0 1 15.709,4.41993 30,33.061372 0 0 1 15,28.63086 l 0,113.83202 c 21.2487,-10.13139 42.8906,-19.01826 65,-26.42383 l 0,-145.5703 a 29.999997,34.898113 0 0 1 15,-30.222659 29.999997,34.898113 0 0 1 14.291,-4.66601 z"
       id="path5122-1"
       inkscape:connector-curvature="0" />
    <path
       style="fill:#000000;fill-opacity:1;fill-rule:evenodd;stroke:none;stroke-width:1px;stroke-linecap:butt;stroke-linejoin:miter;stroke-opacity:1"
       d="m 1030.709,522.37197 a 29.999997,34.898113 0 0 0 -15.709,4.66602 29.999997,34.898113 0 0 0 -15,30.22266 l 0,129.54297 c -28.52866,-5.68315 -57.87966,-8.76415 -88.20506,-8.75781 -69.6475,0.0146 -144.4173,16.25335 -226.0801,54.31641 -6.81979,2.26444 -13.71638,4.42121 -20.71484,6.43555 l 0,-99.29297 A 30,32.142998 0 0 0 650,611.66885 30,32.142998 0 0 0 635.70898,607.37197 30,32.142998 0 0 0 620,611.66885 30,32.142998 0 0 0 605,639.5048 l 0,111.29492 c -4.9141,0.5085 -9.9134,0.89901 -15,1.16601 l 0,-174.19532 A 30,40.408341 0 0 0 575,542.77627 30,40.408341 0 0 0 560.70898,537.37393 30,40.408341 0 0 0 545,542.77627 30,40.408341 0 0 0 530,577.77041 l 0,171.38478 C 508.47852,746.09418 485.30327,740.71782 460,732.36222 405.06155,711.4069 348.28236,700.02085 290,696.45401 l 0,-114.19336 A 30,34.898113 0 0 0 275,552.03799 30,34.898113 0 0 0 260.70898,547.37197 30,34.898113 0 0 0 245,552.03799 30,34.898113 0 0 0 230,582.26065 l 0,113.19532 c -32.9222,0.86642 -66.27583,3.9731 -100,9.00976 l 0,-79.04296 a 29.999999,33.061371 0 0 0 -15,-28.63087 29.999999,33.061371 0 0 0 -14.29102,-4.41993 29.999999,33.061371 0 0 0 -15.708981,4.41993 29.999999,33.061371 0 0 0 -15,28.63087 l 0,89.90234 C 46.816559,720.22495 23.47796,725.93086 0,732.36222 l 0,319.99998 1280,0 0,-319.99998 c -29.128,13.69516 -60.9368,17.23069 -95,12.74805 l 0,-129.68751 a 30,33.061372 0 0 0 -15,-28.63086 30,33.061372 0 0 0 -14.291,-4.41993 30,33.061372 0 0 0 -15.709,4.41993 30,33.061372 0 0 0 -15,28.63086 l 0,113.83204 c -21.2487,-10.13139 -42.8906,-19.01826 -65,-26.42383 l 0,-145.57032 a 29.999997,34.898113 0 0 0 -15,-30.22266 29.999997,34.898113 0 0 0 -14.291,-4.66602 z"
       id="path5122"
       inkscape:connector-curvature="0" />
  </g>
</svg>
