<?xml version="1.0" encoding="UTF-8" standalone="no"?>
<!-- Created with Inkscape (http://www.inkscape.org/) -->

<svg
   xmlns:dc="http://purl.org/dc/elements/1.1/"
   xmlns:cc="http://creativecommons.org/ns#"
   xmlns:rdf="http://www.w3.org/1999/02/22-rdf-syntax-ns#"
   xmlns:svg="http://www.w3.org/2000/svg"
   xmlns="http://www.w3.org/2000/svg"
   xmlns:sodipodi="http://sodipodi.sourceforge.net/DTD/sodipodi-0.dtd"
   xmlns:inkscape="http://www.inkscape.org/namespaces/inkscape"
   width="2000"
   height="800"
   viewBox="0 0 2000 800.00001"
   id="svg4846"
   version="1.1"
   inkscape:version="0.91 r13725"
   sodipodi:docname="waves.svg">
  <defs
     id="defs4848" />
  <sodipodi:namedview
     id="base"
     pagecolor="#ffffff"
     bordercolor="#666666"
     borderopacity="1.0"
     inkscape:pageopacity="0.0"
     inkscape:pageshadow="2"
     inkscape:zoom="0.35355339"
     inkscape:cx="1058.0043"
     inkscape:cy="448.84673"
     inkscape:document-units="px"
     inkscape:current-layer="layer1"
     showgrid="true"
     units="px"
     inkscape:window-width="1366"
     inkscape:window-height="706"
     inkscape:window-x="-8"
     inkscape:window-y="-8"
     inkscape:window-maximized="1">
    <inkscape:grid
       type="xygrid"
       id="grid5394" />
  </sodipodi:namedview>
  <metadata
     id="metadata4851">
    <rdf:RDF>
      <cc:Work
         rdf:about="">
        <dc:format>image/svg+xml</dc:format>
        <dc:type
           rdf:resource="http://purl.org/dc/dcmitype/StillImage" />
        <dc:title></dc:title>
      </cc:Work>
    </rdf:RDF>
  </metadata>
  <g
     inkscape:label="Layer 1"
     inkscape:groupmode="layer"
     id="layer1"
     transform="translate(0,-252.36218)">
    <path
       style="fill:none;fill-rule:evenodd;stroke:#000000;stroke-width:0.98852468px;stroke-linecap:butt;stroke-linejoin:miter;stroke-opacity:1"
       d="m 29.938841,252.83951 c -29.07099127,7.7857 -21.6070812,16.24717 0,24.97022 25.985352,17.13886 24.272924,33.75888 0,49.95628 -24.4428131,17.10377 -25.3628155,33.76283 0,49.92498 24.199468,16.43007 26.510236,33.06329 0,49.964 -25.120119,16.87694 -25.1501905,33.51889 0,49.92498 26.301158,17.3635 25.34914,33.98173 0,49.93279 -23.8942794,16.65088 -26.8025529,33.30176 0,49.95265 26.264859,16.64544 24.453292,33.29088 0,49.93633 -26.9759463,17.63559 -24.1851435,34.17606 0,49.92944 25.250812,16.64798 26.397853,33.29597 0,49.94394 -25.1892424,17.34153 -26.4582432,34.02893 0,49.95811 24.694832,16.41935 27.391302,33.03744 0,49.92737 -25.4666166,17.13194 -25.7258196,33.80018 0,49.99044 26.228439,16.63624 25.949576,33.27249 0,49.90874 -25.9665794,17.30634 -25.8855988,33.9437 0,49.91829 26.074898,16.65169 26.103418,33.30343 0,49.95513 -17.609079,7.6549 -31.4987597,15.45 0,24.9558"
       id="path5398"
       inkscape:connector-curvature="0"
       sodipodi:nodetypes="cccccccccccccccccc" />
    <path
       style="fill:#000000;fill-opacity:1;fill-rule:evenodd;stroke:none;stroke-width:0.98852468px;stroke-linecap:butt;stroke-linejoin:miter;stroke-opacity:1"
       d="m 100,252.36218 0,800.00002 45.22325,0 35.11278,-0.4727 c -31.65502,-9.5058 -17.69644,-17.3021 0,-24.957 26.23292,-16.6517 26.20426,-33.3034 0,-49.95509 -26.01402,-15.97459 -26.0954,-32.61162 0,-49.91796 26.07832,-16.63625 26.35856,-33.27197 0,-49.90821 -25.85345,-16.19026 -25.59296,-32.85829 0,-49.99023 27.52719,-16.88993 24.81734,-33.50839 0,-49.92774 -26.5895,-15.92918 -25.3142,-32.61745 0,-49.95898 26.52881,-16.64797 25.37608,-33.29538 0,-49.94336 -24.30512,-15.75338 -27.10978,-32.2941 0,-49.92969 24.5746,-16.64545 26.39516,-33.2901 0,-49.93554 -26.93552,-16.65089 -24.01282,-33.30225 0,-49.95313 25.4749,-15.95106 26.43164,-32.56814 0,-49.93164 -25.27496,-16.40609 -25.24474,-33.04884 0,-49.92578 26.64176,-16.90071 24.31953,-33.53477 0,-49.96485 -25.48863,-16.16215 -24.56407,-32.82005 0,-49.92382 24.39334,-16.1974 26.11426,-32.81817 0,-49.95703 -21.71427,-8.72305 -29.21521,-17.18501 0,-24.97071 l -35.11278,-0.47656 -45.22325,0 z"
       id="path5398-0"
       inkscape:connector-curvature="0" />
    <path
       style="fill:#000000;fill-opacity:1;fill-rule:evenodd;stroke:none;stroke-width:0.96319604px;stroke-linecap:butt;stroke-linejoin:miter;stroke-opacity:1"
       d="m 300,252.36218 0,800.00002 81.33354,-0.461 c -30.04924,-9.5061 -16.79873,-17.3019 0,-24.957 24.90218,-16.6522 24.87497,-33.30482 0,-49.95702 -24.69438,-15.97508 -24.77164,-32.61305 0,-49.91992 24.75543,-16.63676 25.02145,-33.27342 0,-49.91016 -24.54196,-16.19076 -24.29468,-32.85972 0,-49.99219 26.1308,-16.89044 23.55841,-33.50788 0,-49.92773 -25.24068,-15.92966 -24.03007,-32.61692 0,-49.95898 25.18306,-16.64848 24.08881,-33.29879 0,-49.94727 -23.07218,-15.75386 -25.73456,-32.29356 0,-49.92969 23.32798,-16.64595 25.0562,-33.29155 0,-49.9375 -25.56914,-16.6514 -22.7947,-33.30369 0,-49.95508 24.18261,-15.95155 25.09082,-32.56956 0,-49.93359 -23.99282,-16.40659 -23.96413,-33.05028 0,-49.92773 25.29028,-16.90123 23.08585,-33.53428 0,-49.96485 -24.19566,-16.16264 -23.318,-32.82149 0,-49.92578 23.15591,-16.19789 24.78954,-32.8196 0,-49.95898 -20.61275,-8.72332 -27.73319,-17.18478 0,-24.97071 L 300,252.36218 Z"
       id="path5398-9"
       inkscape:connector-curvature="0" />
    <path
       style="fill:#000000;fill-opacity:1;fill-rule:evenodd;stroke:none;stroke-width:0.93719095px;stroke-linecap:butt;stroke-linejoin:miter;stroke-opacity:1"
       d="m 500,252.36218 0,800.00002 82.33088,-0.4492 c -28.44373,-9.5064 -15.90119,-17.3017 0,-24.9571 23.57167,-16.6527 23.54592,-33.30428 0,-49.957 -23.37498,-15.97557 -23.4481,-32.61447 0,-49.92188 23.43275,-16.63728 23.68457,-33.27485 0,-49.91211 -23.23069,-16.19126 -22.99664,-32.86114 0,-49.99414 24.73464,-16.89097 22.2997,-33.50931 0,-49.92968 -23.89208,-15.93016 -22.74615,-32.61834 0,-49.96094 23.83754,-16.649 22.80175,-33.29826 0,-49.94727 -21.83945,-15.75435 -24.35958,-32.29691 0,-49.93359 22.08158,-16.64648 23.71745,-33.29298 0,-49.93945 -24.203,-16.65192 -21.5768,-33.30318 0,-49.95508 22.89055,-15.95205 23.75024,-32.57098 0,-49.93555 -22.7109,-16.4071 -22.68374,-33.04975 0,-49.92773 23.93903,-16.90176 21.85238,-33.53571 0,-49.9668 -22.90289,-16.16315 -22.07213,-32.82487 0,-49.92969 21.91871,-16.1984 23.46505,-32.81906 0,-49.95898 -19.51143,-8.72359 -26.25142,-17.18452 0,-24.9707 L 500,252.36218 Z"
       id="path5398-09"
       inkscape:connector-curvature="0" />
    <path
       style="fill:#000000;fill-opacity:1;fill-rule:evenodd;stroke:none;stroke-width:0.91045219px;stroke-linecap:butt;stroke-linejoin:miter;stroke-opacity:1"
       d="m 700,252.36218 0,800.00002 83.32731,-0.4356 c -26.83967,-9.5067 -15.00445,-17.3033 0,-24.9589 22.24237,-16.6532 22.21807,-33.30578 0,-49.95904 -22.05677,-15.97609 -22.12577,-32.61585 0,-49.92382 22.11129,-16.63781 22.3489,-33.2743 0,-49.91211 -21.92063,-16.19178 -21.69976,-32.86255 0,-49.9961 23.33976,-16.89152 21.04214,-33.51074 0,-49.93164 -22.5447,-15.93067 -21.46341,-32.61973 0,-49.96289 22.49326,-16.64953 21.51588,-33.29968 0,-49.94922 -20.60783,-15.75486 -22.98585,-32.29635 0,-49.93359 20.83632,-16.64702 22.37994,-33.2944 0,-49.94141 -22.83809,-16.65245 -20.35999,-33.30458 0,-49.95703 21.59966,-15.95256 22.41087,-32.57237 0,-49.9375 -21.43014,-16.40763 -21.40451,-33.05117 0,-49.92969 22.58902,-16.9023 20.62004,-33.53713 0,-49.96875 -21.61131,-16.16366 -20.82739,-32.8243 0,-49.92968 20.68263,-16.19892 22.14177,-32.82047 0,-49.96094 -18.4111,-8.72387 -24.771,-17.18623 0,-24.97266 L 700,252.36218 Z"
       id="path5398-6"
       inkscape:connector-curvature="0" />
    <path
       style="fill:#000000;fill-opacity:1;fill-rule:evenodd;stroke:none;stroke-width:0.88291395px;stroke-linecap:butt;stroke-linejoin:miter;stroke-opacity:1"
       d="m 900,252.36218 0,800.00002 84.32342,-0.4219 c -25.23605,-9.5071 -14.10798,-17.3031 0,-24.959 20.91358,-16.6538 20.89058,-33.30905 0,-49.96287 -20.73893,-15.97663 -20.80381,-32.61531 0,-49.92383 20.79018,-16.63837 21.01368,-33.27765 0,-49.91601 -20.61092,-16.19231 -20.40325,-32.86198 0,-49.9961 21.94528,-16.89208 19.78498,-33.51215 0,-49.93359 -21.19772,-15.9312 -20.18102,-32.6211 0,-49.96484 21.14938,-16.65008 20.23048,-33.29913 0,-49.94922 -19.37656,-15.75539 -21.61249,-32.29772 0,-49.93555 19.59138,-16.64757 21.04278,-33.2958 0,-49.94336 -21.47356,-16.653 -19.14353,-33.30598 0,-49.95898 20.30918,-15.95308 21.07198,-32.57376 0,-49.93946 -20.14973,-16.40818 -20.12564,-33.05255 0,-49.93164 21.23938,-16.90286 19.38808,-33.53854 0,-49.9707 -20.32008,-16.1642 -19.583,-32.82375 0,-49.92969 19.44698,-16.19946 20.81898,-32.82186 0,-49.96289 -17.31108,-8.72416 -23.29099,-17.18792 0,-24.97461 L 900,252.36218 Z"
       id="path5398-4"
       inkscape:connector-curvature="0" />
    <path
       style="fill:#000000;fill-opacity:1;fill-rule:evenodd;stroke:none;stroke-width:0.85450006px;stroke-linecap:butt;stroke-linejoin:miter;stroke-opacity:1"
       d="m 1100,252.36218 0,800.00002 85.319,-0.3965 c -23.6335,-9.5074 -13.2121,-17.3028 0,-24.959 19.5854,-16.6544 19.5639,-33.30846 0,-49.96288 -19.4221,-15.97717 -19.4827,-32.6186 0,-49.92773 19.4699,-16.63893 19.6792,-33.2771 0,-49.91602 -19.3022,-16.19287 -19.1076,-32.86335 0,-49.99805 20.5516,-16.89266 18.5285,-33.51354 0,-49.93554 -19.8517,-15.93175 -18.8995,-32.62247 0,-49.9668 19.8063,-16.65065 18.9457,-33.30051 0,-49.95117 -18.1461,-15.75592 -20.2401,-32.29907 0,-49.9375 18.3472,-16.64814 19.7065,-33.29718 0,-49.94531 -20.11,-16.65358 -17.9279,-33.30737 0,-49.96094 19.0195,-15.95363 19.7337,-32.57315 0,-49.93946 -18.8702,-16.40873 -18.8477,-33.05393 0,-49.93359 19.8906,-16.90344 18.1568,-33.53993 0,-49.97265 -19.0298,-16.16477 -18.3396,-32.82707 0,-49.9336 18.2119,-16.20001 19.4968,-32.82127 0,-49.96289 -16.2118,-8.72446 -21.8121,-17.18766 0,-24.97461 L 1100,252.36218 Z"
       id="path5398-8"
       inkscape:connector-curvature="0" />
    <path
       style="fill:#000000;fill-opacity:1;fill-rule:evenodd;stroke:none;stroke-width:0.82512134px;stroke-linecap:butt;stroke-linejoin:miter;stroke-opacity:1"
       d="m 1300,252.36218 0,800.00002 86.3134,-0.3789 c -22.0325,-9.5077 -12.317,-17.3046 0,-24.961 18.2587,-16.655 18.2388,-33.30985 0,-49.96481 -18.1063,-15.97774 -18.163,-32.61799 0,-49.92773 18.1511,-16.63952 18.3462,-33.27845 0,-49.91797 -17.9946,-16.19344 -17.8132,-32.86469 0,-50 19.1596,-16.89325 17.2735,-33.51492 0,-49.9375 -18.5069,-15.93231 -17.6192,-32.62381 0,-49.96875 18.4647,-16.65124 17.6624,-33.30188 0,-49.95313 -16.9169,-15.75648 -18.869,-32.30039 0,-49.93945 17.1045,-16.64872 18.3716,-33.2966 0,-49.94531 -18.7477,-16.65417 -16.7134,-33.30874 0,-49.96289 17.7312,-15.9542 18.397,-32.57645 0,-49.94336 -17.5919,-16.40932 -17.5709,-33.05333 0,-49.9336 18.5433,-16.90403 16.9269,-33.5413 0,-49.9746 -17.7406,-16.16533 -17.0972,-32.82841 0,-49.93555 16.9784,-16.20058 18.1762,-32.82262 0,-49.96485 -15.1136,-8.72477 -20.3344,-17.18933 0,-24.97656 L 1300,252.36218 Z"
       id="path5398-97"
       inkscape:connector-curvature="0" />
    <path
       style="fill:#000000;fill-opacity:1;fill-rule:evenodd;stroke:none;stroke-width:0.79467243px;stroke-linecap:butt;stroke-linejoin:miter;stroke-opacity:1"
       d="m 1500,252.36218 0,800.00002 87.3075,-0.3594 c -20.4326,-9.508 -11.4226,-17.3062 0,-24.9629 16.9326,-16.6556 16.9141,-33.31121 0,-49.96678 -16.7914,-15.97832 -16.8439,-32.61931 0,-49.92969 16.8328,-16.64013 17.0137,-33.2798 0,-49.91992 -16.6878,-16.19404 -16.5196,-32.86601 0,-50.00195 17.768,-16.89387 16.0188,-33.51628 0,-49.93946 -17.1629,-15.9329 -16.3397,-32.62317 0,-49.96875 17.1235,-16.65185 16.3796,-33.30517 0,-49.95703 -15.6883,-15.75706 -17.4987,-32.30171 0,-49.94141 15.8621,-16.64933 17.0373,-33.29794 0,-49.94726 -17.3862,-16.65478 -15.4997,-33.31008 0,-49.96485 16.4433,-15.95479 17.0609,-32.5758 0,-49.94335 -16.3143,-16.40992 -16.2949,-33.05662 0,-49.9375 17.1965,-16.90465 15.6976,-33.54071 0,-49.97461 -16.4524,-16.16592 -15.8555,-32.82974 0,-49.9375 15.7452,-16.20117 16.856,-32.82394 0,-49.9668 -14.016,-8.72509 -18.8577,-17.18904 0,-24.97656 L 1500,252.36218 Z"
       id="path5398-2"
       inkscape:connector-curvature="0" />
    <path
       style="fill:#000000;fill-opacity:1;fill-rule:evenodd;stroke:none;stroke-width:0.76302719px;stroke-linecap:butt;stroke-linejoin:miter;stroke-opacity:1"
       d="m 1700,252.36218 0,800.00002 88.3003,-0.3652 c -18.8339,-9.5083 -10.5289,-17.306 0,-24.9629 15.6081,-16.6563 15.591,-33.31258 0,-49.9688 -15.4777,-15.97893 -15.5261,-32.6206 0,-49.93164 15.5161,-16.64076 15.6829,-33.28112 0,-49.92187 -15.3822,-16.19465 -15.2272,-32.86732 0,-50.00391 16.3781,-16.89451 14.7658,-33.51759 0,-49.9414 -15.82,-15.9335 -15.0613,-32.62447 0,-49.97071 15.7841,-16.65248 15.0983,-33.30648 0,-49.95898 -14.4609,-15.75765 -16.1296,-32.30103 0,-49.94141 14.6214,-16.64997 15.7046,-33.30121 0,-49.95117 -16.0259,-16.65541 -14.287,-33.3114 0,-49.9668 15.1571,-15.95539 15.7263,-32.5771 0,-49.94531 -15.0379,-16.41054 -15.02,-33.05793 0,-49.93945 15.8514,-16.90529 14.4696,-33.54203 0,-49.97656 -15.1651,-16.16653 -14.615,-32.83104 0,-49.93946 14.5136,-16.20179 15.5375,-32.82524 0,-49.96875 -12.9193,-8.72542 -17.3823,-17.18875 0,-24.97656 L 1700,252.36218 Z"
       id="path5398-81"
       inkscape:connector-curvature="0" />
    <path
       style="fill:#000000;fill-opacity:1;fill-rule:evenodd;stroke:none;stroke-width:0.73003262px;stroke-linecap:butt;stroke-linejoin:miter;stroke-opacity:1"
       d="m 1900,252.36218 0,800.00002 89.2926,-0.3496 c -17.2367,-9.5087 -9.636,-17.3056 0,-24.9629 14.2844,-16.6569 14.2687,-33.31384 0,-49.97072 -14.1651,-15.97957 -14.2094,-32.6219 0,-49.9336 14.2002,-16.64142 14.3527,-33.28436 0,-49.92578 -14.0777,-16.19529 -13.9359,-32.86859 0,-50.00586 14.989,-16.89518 13.5136,-33.51694 0,-49.9414 -14.4785,-15.93414 -13.784,-32.62769 0,-49.97461 14.4455,-16.65315 13.8178,-33.30583 0,-49.95899 -13.2346,-15.75828 -14.7618,-32.30424 0,-49.94531 13.3813,-16.65063 14.3727,-33.30055 0,-49.95117 -14.6668,-16.65607 -13.0753,-33.31269 0,-49.96875 13.8716,-15.95602 14.3926,-32.58032 0,-49.94922 -13.7626,-16.41119 -13.7462,-33.05726 0,-49.93945 14.507,-16.90597 13.2425,-33.54528 0,-49.98047 -13.8791,-16.16717 -13.3756,-32.83037 0,-49.93946 13.2826,-16.20244 14.2197,-32.82846 0,-49.97265 -11.8238,-8.72576 -15.9083,-17.19039 0,-24.97852 L 1900,252.36218 Z"
       id="path5398-5"
       inkscape:connector-curvature="0" />
  </g>
</svg>
