<?xml version="1.0" encoding="UTF-8" standalone="no"?>
<!-- Created with Inkscape (http://www.inkscape.org/) -->

<svg
   xmlns:dc="http://purl.org/dc/elements/1.1/"
   xmlns:cc="http://creativecommons.org/ns#"
   xmlns:rdf="http://www.w3.org/1999/02/22-rdf-syntax-ns#"
   xmlns:svg="http://www.w3.org/2000/svg"
   xmlns="http://www.w3.org/2000/svg"
   xmlns:sodipodi="http://sodipodi.sourceforge.net/DTD/sodipodi-0.dtd"
   xmlns:inkscape="http://www.inkscape.org/namespaces/inkscape"
   width="210mm"
   height="297mm"
   viewBox="0 0 744.09448819 1052.3622047"
   id="svg2"
   version="1.1"
   inkscape:version="0.91 r13725"
   sodipodi:docname="mountains.svg"
   enable-background="new">
  <defs
     id="defs4" />
  <sodipodi:namedview
     id="base"
     pagecolor="#ffffff"
     bordercolor="#666666"
     borderopacity="1.0"
     inkscape:pageopacity="0.0"
     inkscape:pageshadow="2"
     inkscape:zoom="1.4"
     inkscape:cx="241.28799"
     inkscape:cy="485.29172"
     inkscape:document-units="px"
     inkscape:current-layer="layer2"
     showgrid="true"
     inkscape:window-width="1366"
     inkscape:window-height="706"
     inkscape:window-x="-8"
     inkscape:window-y="-8"
     inkscape:window-maximized="1">
    <inkscape:grid
       type="xygrid"
       id="grid4136" />
  </sodipodi:namedview>
  <metadata
     id="metadata7">
    <rdf:RDF>
      <cc:Work
         rdf:about="">
        <dc:format>image/svg+xml</dc:format>
        <dc:type
           rdf:resource="http://purl.org/dc/dcmitype/StillImage" />
        <dc:title />
      </cc:Work>
    </rdf:RDF>
  </metadata>
  <g
     inkscape:label="Layer 1"
     id="g4173"
     inkscape:groupmode="layer"
     style="display:inline" />
  <g
     inkscape:groupmode="layer"
     id="layer2"
     inkscape:label="Layer 2"
     style="display:inline">
    <path
       inkscape:connector-curvature="0"
       style="display:inline;fill:#552200;fill-rule:evenodd;stroke:none;stroke-width:1px;stroke-linecap:butt;stroke-linejoin:miter;stroke-opacity:1"
       d="M 389.47368,274.02986 320,432.3622 l 69.47368,0 57.89474,0 -34.73684,-131.94313 -23.1579,-5.27843 0,-21.11078 z"
       id="path4141-2-6" />
    <path
       inkscape:connector-curvature="0"
       style="display:inline;fill:#803300;fill-rule:evenodd;stroke:none;stroke-width:1px;stroke-linecap:butt;stroke-linejoin:miter;stroke-opacity:1"
       d="m 435.78947,242.3622 -23.15789,15.83382 -23.1579,15.83384 0,21.11078 23.1579,5.27843 34.73684,131.94313 28.94737,0 -34.73684,-100.27695 -5.78948,-89.72305 z"
       id="path4143-1-2" />
    <path
       inkscape:connector-curvature="0"
       style="display:inline;fill:#d45500;fill-rule:evenodd;stroke:none;stroke-width:1px;stroke-linecap:butt;stroke-linejoin:miter;stroke-opacity:1"
       d="M 435.78947,242.3622 505.26316,369.02986 470.52632,252.91907 435.78947,242.3622 Z m 69.47369,126.66766 -28.94737,63.33234 63.68421,0 -34.73684,-63.33234 z"
       id="path4157-0-4" />
    <path
       inkscape:connector-curvature="0"
       style="display:inline;fill:#aa4400;fill-rule:evenodd;stroke:none;stroke-width:1px;stroke-linecap:butt;stroke-linejoin:miter;stroke-opacity:1"
       d="m 435.78947,242.3622 5.78948,89.72305 34.73684,100.27695 28.94737,-63.33234 -69.47369,-126.66766 z"
       id="path4167-3-8" />
    <path
       style="fill:#552200;fill-rule:evenodd;stroke:none;stroke-width:1px;stroke-linecap:butt;stroke-linejoin:miter;stroke-opacity:1"
       d="M 210 492.36133 L 160 632.36133 L 165 712.36133 L 190 712.36133 L 240 587.36133 L 180 652.36133 L 220 537.36133 L 210 492.36133 z M 130 592.36133 L 90 712.36133 L 135 712.36133 L 130 592.36133 z "
       id="path4879" />
    <path
       style="fill:#803300;fill-rule:evenodd;stroke:none;stroke-width:1px;stroke-linecap:butt;stroke-linejoin:miter;stroke-opacity:1"
       d="M 240 512.36133 L 220 537.36133 L 180 652.36133 L 240 587.36133 L 240 512.36133 z M 240 587.36133 L 190 712.36133 L 230 712.36133 L 310 712.36133 L 240 587.36133 z M 130 592.36133 L 135 712.36133 L 165 712.36133 L 130 592.36133 z "
       id="path4883" />
    <path
       style="fill:#aa4400;fill-rule:evenodd;stroke:none;stroke-width:1px;stroke-linecap:butt;stroke-linejoin:miter;stroke-opacity:1"
       d="M 210 492.36133 L 220 537.36133 L 240 512.36133 L 210 492.36133 z M 240 512.36133 L 240 587.36133 L 310 712.36133 L 240 512.36133 z M 130 592.36133 L 165 712.36133 L 160 632.36133 L 130 592.36133 z "
       id="path4885" />
  </g>
</svg>
