<?xml version="1.0" encoding="UTF-8" standalone="no"?>
<!-- Creator: CorelDRAW X6 -->

<svg
   xmlns:dc="http://purl.org/dc/elements/1.1/"
   xmlns:cc="http://creativecommons.org/ns#"
   xmlns:rdf="http://www.w3.org/1999/02/22-rdf-syntax-ns#"
   xmlns:svg="http://www.w3.org/2000/svg"
   xmlns="http://www.w3.org/2000/svg"
   xmlns:sodipodi="http://sodipodi.sourceforge.net/DTD/sodipodi-0.dtd"
   xmlns:inkscape="http://www.inkscape.org/namespaces/inkscape"
   xml:space="preserve"
   width="1280"
   height="200"
   version="1.1"
   style="clip-rule:evenodd;fill-rule:evenodd;image-rendering:optimizeQuality;shape-rendering:geometricPrecision;text-rendering:geometricPrecision"
   viewBox="0 0 19813.395 3095.8335"
   id="svg2"
   inkscape:version="0.91 r13725"
   sodipodi:docname="stage1-bg-bottom-master - Copy.svg"
   inkscape:export-filename="C:\Users\John\Desktop\stage1-bg-bottom-master.png"
   inkscape:export-xdpi="90"
   inkscape:export-ydpi="90"><metadata
     id="metadata88"><rdf:RDF><cc:Work
         rdf:about=""><dc:format>image/svg+xml</dc:format><dc:type
           rdf:resource="http://purl.org/dc/dcmitype/StillImage" /><dc:title></dc:title></cc:Work></rdf:RDF></metadata><sodipodi:namedview
     pagecolor="#ffffff"
     bordercolor="#666666"
     borderopacity="1"
     objecttolerance="10"
     gridtolerance="10"
     guidetolerance="10"
     inkscape:pageopacity="0"
     inkscape:pageshadow="2"
     inkscape:window-width="1366"
     inkscape:window-height="706"
     id="namedview86"
     showgrid="false"
     units="px"
     inkscape:zoom="0.53033173"
     inkscape:cx="726.85421"
     inkscape:cy="193.25425"
     inkscape:window-x="-8"
     inkscape:window-y="-8"
     inkscape:window-maximized="1"
     inkscape:current-layer="_805144640" /><defs
     id="defs4"><style
       type="text/css"
       id="style6"><![CDATA[
    .fil3 {fill:#A1774D}
    .fil2 {fill:#B2885E}
    .fil1 {fill:#BCE2F9}
    .fil7 {fill:#BF8720}
    .fil12 {fill:#CB9322}
    .fil4 {fill:#D99527}
    .fil8 {fill:#D9ECFF}
    .fil5 {fill:#DD9F42}
    .fil10 {fill:#E5A029}
    .fil6 {fill:#E7C390}
    .fil9 {fill:#E9AA45}
    .fil11 {fill:#F3CE97}
    .fil0 {fill:url(#id0)}
   ]]></style><linearGradient
       id="id0"
       gradientUnits="userSpaceOnUse"
       x1="2971.75"
       y1="0"
       x2="2971.75"
       y2="4457.6201"><stop
         offset="0"
         style="stop-color:#B8DCFE"
         id="stop9" /><stop
         offset="1"
         style="stop-color:#FEFEFE"
         id="stop11" /></linearGradient></defs><g
     id="Layer_x0020_1"
     transform="translate(0,-1362.171)"><metadata
       id="CorelCorpID_0Corel-Layer" /><g
       id="_805144640"><path
         style="opacity:1;fill:#27401f;fill-opacity:1;stroke:none;stroke-width:1;stroke-miterlimit:4;stroke-dasharray:none;stroke-opacity:1"
         id="path3349"
         sodipodi:type="arc"
         sodipodi:cx="-3.6313584e-005"
         sodipodi:cy="2844.2546"
         sodipodi:rx="1547.9214"
         sodipodi:ry="1373.7328"
         sodipodi:start="0"
         sodipodi:end="6.2784206"
         sodipodi:open="true"
         d="M 1547.9214,2844.2546 A 1547.9214,1373.7328 0 0 1 1.8438113,4217.9865 1547.9214,1373.7328 0 0 1 -1547.917,2847.5274 1547.9214,1373.7328 0 0 1 -5.5315686,1470.5306 1547.9214,1373.7328 0 0 1 1547.9038,2837.7092" /><g
         id="g4345"
         style="fill:#74bf5d;fill-opacity:1"
         transform="matrix(0.66666666,0,0,0.69918698,-4.5450301e-6,2134.3307)"><path
           d="M 8699.2983,2474.897 A 2321.8818,1964.7573 0 0 1 6380.1823,4439.6529 2321.8818,1964.7573 0 0 1 4055.5413,2479.5777 2321.8818,1964.7573 0 0 1 6369.1192,510.15219 2321.8818,1964.7573 0 0 1 8699.272,2465.5355"
           sodipodi:open="true"
           sodipodi:end="6.2784206"
           sodipodi:start="0"
           sodipodi:ry="1964.7573"
           sodipodi:rx="2321.8818"
           sodipodi:cy="2474.897"
           sodipodi:cx="6377.4165"
           sodipodi:type="arc"
           id="path3349-8"
           style="clip-rule:evenodd;opacity:1;fill:#74bf5d;fill-opacity:1;fill-rule:evenodd;stroke:none;stroke-width:1;stroke-miterlimit:4;stroke-dasharray:none;stroke-opacity:1;image-rendering:optimizeQuality;shape-rendering:geometricPrecision;text-rendering:geometricPrecision" /><path
           d="M 11031.493,1352.182 A 2321.8818,1964.7573 0 0 1 8712.3771,3316.9379 2321.8818,1964.7573 0 0 1 6387.7361,1356.8627 2321.8818,1964.7573 0 0 1 8701.314,-612.56277 2321.8818,1964.7573 0 0 1 11031.467,1342.8205"
           sodipodi:open="true"
           sodipodi:end="6.2784206"
           sodipodi:start="0"
           sodipodi:ry="1964.7573"
           sodipodi:rx="2321.8818"
           sodipodi:cy="1352.182"
           sodipodi:cx="8709.6113"
           sodipodi:type="arc"
           id="path3349-3"
           style="clip-rule:evenodd;opacity:1;fill:#74bf5d;fill-opacity:1;fill-rule:evenodd;stroke:none;stroke-width:1;stroke-miterlimit:4;stroke-dasharray:none;stroke-opacity:1;image-rendering:optimizeQuality;shape-rendering:geometricPrecision;text-rendering:geometricPrecision" /><path
           d="M 13343.048,2418.7612 A 2321.8818,1964.7573 0 0 1 11023.932,4383.5172 2321.8818,1964.7573 0 0 1 8699.2908,2423.442 2321.8818,1964.7573 0 0 1 11012.869,454.01645 2321.8818,1964.7573 0 0 1 13343.021,2409.3998"
           sodipodi:open="true"
           sodipodi:end="6.2784206"
           sodipodi:start="0"
           sodipodi:ry="1964.7573"
           sodipodi:rx="2321.8818"
           sodipodi:cy="2418.7612"
           sodipodi:cx="11021.166"
           sodipodi:type="arc"
           id="path3349-10"
           style="clip-rule:evenodd;opacity:1;fill:#74bf5d;fill-opacity:1;fill-rule:evenodd;stroke:none;stroke-width:1;stroke-miterlimit:4;stroke-dasharray:none;stroke-opacity:1;image-rendering:optimizeQuality;shape-rendering:geometricPrecision;text-rendering:geometricPrecision" /></g><path
         style="clip-rule:evenodd;opacity:1;fill:#27401f;fill-opacity:1;fill-rule:evenodd;stroke:none;stroke-width:1;stroke-miterlimit:4;stroke-dasharray:none;stroke-opacity:1;image-rendering:optimizeQuality;shape-rendering:geometricPrecision;text-rendering:geometricPrecision"
         id="path3349-77"
         sodipodi:type="arc"
         sodipodi:cx="19813.395"
         sodipodi:cy="2844.2546"
         sodipodi:rx="1547.9213"
         sodipodi:ry="1373.7328"
         sodipodi:start="0"
         sodipodi:end="6.2784206"
         sodipodi:open="true"
         d="m 21361.316,2844.2546 a 1547.9213,1373.7328 0 0 1 -1546.078,1373.7319 1547.9213,1373.7328 0 0 1 -1549.76,-1370.4591 1547.9213,1373.7328 0 0 1 1542.385,-1376.9968 1547.9213,1373.7328 0 0 1 1553.435,1367.1786" /><g
         id="g4394"
         style="fill:#74bf5d;fill-opacity:1"
         transform="matrix(0.66666666,0,0,0.69918698,-4.5450301e-6,2134.3307)"><path
           transform="scale(-1,1)"
           d="m -24168.132,3737.9514 a 2321.8816,1964.7573 0 0 1 -2319.116,1964.7559 2321.8816,1964.7573 0 0 1 -2324.641,-1960.0751 2321.8816,1964.7573 0 0 1 2313.578,-1969.4256 2321.8816,1964.7573 0 0 1 2330.153,1955.3834"
           sodipodi:open="true"
           sodipodi:end="6.2784206"
           sodipodi:start="0"
           sodipodi:ry="1964.7573"
           sodipodi:rx="2321.8816"
           sodipodi:cy="3737.9514"
           sodipodi:cx="-26490.014"
           sodipodi:type="arc"
           id="path3349-4-1"
           style="clip-rule:evenodd;opacity:1;fill:#74bf5d;fill-opacity:1;fill-rule:evenodd;stroke:#338000;stroke-width:0.95217323;stroke-miterlimit:4;stroke-dasharray:none;stroke-opacity:1;image-rendering:optimizeQuality;shape-rendering:geometricPrecision;text-rendering:geometricPrecision" /><g
           id="g4386"
           style="fill:#74bf5d;fill-opacity:1"><path
             style="clip-rule:evenodd;opacity:1;fill:#74bf5d;fill-opacity:1;fill-rule:evenodd;stroke:none;stroke-width:1;stroke-miterlimit:4;stroke-dasharray:none;stroke-opacity:1;image-rendering:optimizeQuality;shape-rendering:geometricPrecision;text-rendering:geometricPrecision"
             id="path3349-8-4"
             sodipodi:type="arc"
             sodipodi:cx="-23972.07"
             sodipodi:cy="2839.7791"
             sodipodi:rx="2321.8816"
             sodipodi:ry="1964.7573"
             sodipodi:start="0"
             sodipodi:end="6.2784206"
             sodipodi:open="true"
             d="m -21650.189,2839.7791 a 2321.8816,1964.7573 0 0 1 -2319.116,1964.7559 2321.8816,1964.7573 0 0 1 -2324.64,-1960.0752 2321.8816,1964.7573 0 0 1 2313.577,-1969.42553 2321.8816,1964.7573 0 0 1 2330.153,1955.38333"
             transform="scale(-1,1)" /></g></g><g
         id="g4404"
         style="fill:#27401f;fill-opacity:1"
         transform="matrix(0.66666666,0,0,0.69918698,-4.5450301e-6,2134.3307)"><path
           d="M 16232.493,2156.7944 A 2321.8818,1964.7573 0 0 1 13913.377,4121.5504 2321.8818,1964.7573 0 0 1 11588.736,2161.4752 2321.8818,1964.7573 0 0 1 13902.314,192.04965 2321.8818,1964.7573 0 0 1 16232.467,2147.433"
           sodipodi:open="true"
           sodipodi:end="6.2784206"
           sodipodi:start="0"
           sodipodi:ry="1964.7573"
           sodipodi:rx="2321.8818"
           sodipodi:cy="2156.7944"
           sodipodi:cx="13910.611"
           sodipodi:type="arc"
           id="path3349-9"
           style="clip-rule:evenodd;opacity:1;fill:#27401f;fill-opacity:1;fill-rule:evenodd;stroke:none;stroke-width:1;stroke-miterlimit:4;stroke-dasharray:none;stroke-opacity:1;image-rendering:optimizeQuality;shape-rendering:geometricPrecision;text-rendering:geometricPrecision" /><path
           d="M 16315.048,3915.7144 A 2321.8818,1964.7573 0 0 1 13995.932,5880.4703 2321.8818,1964.7573 0 0 1 11671.291,3920.3951 2321.8818,1964.7573 0 0 1 13984.869,1950.9696 2321.8818,1964.7573 0 0 1 16315.021,3906.3529"
           sodipodi:open="true"
           sodipodi:end="6.2784206"
           sodipodi:start="0"
           sodipodi:ry="1964.7573"
           sodipodi:rx="2321.8818"
           sodipodi:cy="3915.7144"
           sodipodi:cx="13993.166"
           sodipodi:type="arc"
           id="path3349-0"
           style="clip-rule:evenodd;opacity:1;fill:#27401f;fill-opacity:1;fill-rule:evenodd;stroke:none;stroke-width:1;stroke-miterlimit:4;stroke-dasharray:none;stroke-opacity:1;image-rendering:optimizeQuality;shape-rendering:geometricPrecision;text-rendering:geometricPrecision" /><path
           d="M 18585.326,1520.5894 A 2321.8818,1964.7573 0 0 1 16266.21,3485.3453 2321.8818,1964.7573 0 0 1 13941.569,1525.2701 2321.8818,1964.7573 0 0 1 16255.147,-444.15542 2321.8818,1964.7573 0 0 1 18585.3,1511.2279"
           sodipodi:open="true"
           sodipodi:end="6.2784206"
           sodipodi:start="0"
           sodipodi:ry="1964.7573"
           sodipodi:rx="2321.8818"
           sodipodi:cy="1520.5894"
           sodipodi:cx="16263.444"
           sodipodi:type="arc"
           id="path3349-72"
           style="clip-rule:evenodd;opacity:1;fill:#27401f;fill-opacity:1;fill-rule:evenodd;stroke:none;stroke-width:1;stroke-miterlimit:4;stroke-dasharray:none;stroke-opacity:1;image-rendering:optimizeQuality;shape-rendering:geometricPrecision;text-rendering:geometricPrecision" /><path
           transform="scale(-1,1)"
           d="m -17006.439,2783.6436 a 2321.8816,1964.7573 0 0 1 -2319.116,1964.7559 2321.8816,1964.7573 0 0 1 -2324.64,-1960.0752 2321.8816,1964.7573 0 0 1 2313.577,-1969.42552 2321.8816,1964.7573 0 0 1 2330.153,1955.38332"
           sodipodi:open="true"
           sodipodi:end="6.2784206"
           sodipodi:start="0"
           sodipodi:ry="1964.7573"
           sodipodi:rx="2321.8816"
           sodipodi:cy="2783.6436"
           sodipodi:cx="-19328.32"
           sodipodi:type="arc"
           id="path3349-10-1"
           style="clip-rule:evenodd;opacity:1;fill:#27401f;fill-opacity:1;fill-rule:evenodd;stroke:none;stroke-width:1;stroke-miterlimit:4;stroke-dasharray:none;stroke-opacity:1;image-rendering:optimizeQuality;shape-rendering:geometricPrecision;text-rendering:geometricPrecision" /><path
           transform="scale(-1,1)"
           d="M -14116.993,2521.6768 A 2321.8816,1964.7573 0 0 1 -16436.109,4486.4327 2321.8816,1964.7573 0 0 1 -18760.75,2526.3575 2321.8816,1964.7573 0 0 1 -16447.172,556.93198 2321.8816,1964.7573 0 0 1 -14117.02,2512.3153"
           sodipodi:open="true"
           sodipodi:end="6.2784206"
           sodipodi:start="0"
           sodipodi:ry="1964.7573"
           sodipodi:rx="2321.8816"
           sodipodi:cy="2521.6768"
           sodipodi:cx="-16438.875"
           sodipodi:type="arc"
           id="path3349-9-9"
           style="clip-rule:evenodd;opacity:1;fill:#27401f;fill-opacity:1;fill-rule:evenodd;stroke:none;stroke-width:1;stroke-miterlimit:4;stroke-dasharray:none;stroke-opacity:1;image-rendering:optimizeQuality;shape-rendering:geometricPrecision;text-rendering:geometricPrecision" /><path
           transform="scale(-1,1)"
           d="m -14034.439,4280.5967 a 2321.8816,1964.7573 0 0 1 -2319.116,1964.7559 2321.8816,1964.7573 0 0 1 -2324.64,-1960.0752 2321.8816,1964.7573 0 0 1 2313.577,-1969.4255 2321.8816,1964.7573 0 0 1 2330.153,1955.3833"
           sodipodi:open="true"
           sodipodi:end="6.2784206"
           sodipodi:start="0"
           sodipodi:ry="1964.7573"
           sodipodi:rx="2321.8816"
           sodipodi:cy="4280.5967"
           sodipodi:cx="-16356.32"
           sodipodi:type="arc"
           id="path3349-0-9"
           style="clip-rule:evenodd;opacity:1;fill:#27401f;fill-opacity:1;fill-rule:evenodd;stroke:none;stroke-width:1;stroke-miterlimit:4;stroke-dasharray:none;stroke-opacity:1;image-rendering:optimizeQuality;shape-rendering:geometricPrecision;text-rendering:geometricPrecision" /><path
           transform="scale(-1,1)"
           d="m -11764.161,1885.4719 a 2321.8816,1964.7573 0 0 1 -2319.116,1964.756 2321.8816,1964.7573 0 0 1 -2324.641,-1960.0752 2321.8816,1964.7573 0 0 1 2313.578,-1969.425555 2321.8816,1964.7573 0 0 1 2330.152,1955.383355"
           sodipodi:open="true"
           sodipodi:end="6.2784206"
           sodipodi:start="0"
           sodipodi:ry="1964.7573"
           sodipodi:rx="2321.8816"
           sodipodi:cy="1885.4719"
           sodipodi:cx="-14086.043"
           sodipodi:type="arc"
           id="path3349-72-9"
           style="clip-rule:evenodd;opacity:1;fill:#27401f;fill-opacity:1;fill-rule:evenodd;stroke:none;stroke-width:1;stroke-miterlimit:4;stroke-dasharray:none;stroke-opacity:1;image-rendering:optimizeQuality;shape-rendering:geometricPrecision;text-rendering:geometricPrecision" /></g><g
         id="g4340"
         style="fill:#4d7f3e;fill-opacity:1"
         transform="matrix(0.66666666,0,0,0.69918698,-4.5450301e-6,2134.3307)"><path
           d="M 12001.521,3728.5952 A 2321.8818,1964.7573 0 0 1 9682.4054,5693.3511 2321.8818,1964.7573 0 0 1 7357.7644,3733.276 2321.8818,1964.7573 0 0 1 9671.3424,1763.8504 2321.8818,1964.7573 0 0 1 12001.495,3719.2338"
           sodipodi:open="true"
           sodipodi:end="6.2784206"
           sodipodi:start="0"
           sodipodi:ry="1964.7573"
           sodipodi:rx="2321.8818"
           sodipodi:cy="3728.5952"
           sodipodi:cx="9679.6396"
           sodipodi:type="arc"
           id="path3349-6"
           style="clip-rule:evenodd;opacity:1;fill:#4d7f3e;fill-opacity:1;fill-rule:evenodd;stroke:none;stroke-width:1;stroke-miterlimit:4;stroke-dasharray:none;stroke-opacity:1;image-rendering:optimizeQuality;shape-rendering:geometricPrecision;text-rendering:geometricPrecision" /><path
           d="M 9421.6597,4327.3765 A 2321.8818,1964.7573 0 0 1 7102.5436,6292.1324 2321.8818,1964.7573 0 0 1 4777.9026,4332.0572 2321.8818,1964.7573 0 0 1 7091.4805,2362.6317 2321.8818,1964.7573 0 0 1 9421.6333,4318.015"
           sodipodi:open="true"
           sodipodi:end="6.2784206"
           sodipodi:start="0"
           sodipodi:ry="1964.7573"
           sodipodi:rx="2321.8818"
           sodipodi:cy="4327.3765"
           sodipodi:cx="7099.7778"
           sodipodi:type="arc"
           id="path3349-5"
           style="clip-rule:evenodd;opacity:1;fill:#4d7f3e;fill-opacity:1;fill-rule:evenodd;stroke:none;stroke-width:1;stroke-miterlimit:4;stroke-dasharray:none;stroke-opacity:1;image-rendering:optimizeQuality;shape-rendering:geometricPrecision;text-rendering:geometricPrecision" /><path
           transform="scale(-1,1)"
           d="m -10309.119,4701.6152 a 2321.8813,1964.7573 0 0 1 -2319.115,1964.756 2321.8813,1964.7573 0 0 1 -2324.641,-1960.0752 2321.8813,1964.7573 0 0 1 2313.578,-1969.4255 2321.8813,1964.7573 0 0 1 2330.152,1955.3833"
           sodipodi:open="true"
           sodipodi:end="6.2784206"
           sodipodi:start="0"
           sodipodi:ry="1964.7573"
           sodipodi:rx="2321.8813"
           sodipodi:cy="4701.6152"
           sodipodi:cx="-12631"
           sodipodi:type="arc"
           id="path3349-72-9-4"
           style="clip-rule:evenodd;opacity:1;fill:#4d7f3e;fill-opacity:1;fill-rule:evenodd;stroke:none;stroke-width:1;stroke-miterlimit:4;stroke-dasharray:none;stroke-opacity:1;image-rendering:optimizeQuality;shape-rendering:geometricPrecision;text-rendering:geometricPrecision" /></g><g
         id="g4334"
         style="fill:#4d7f3e;fill-opacity:1"
         transform="matrix(0.66666666,0,0,0.69918698,-4.5450301e-6,2134.3307)"><path
           d="M 4777.9094,1408.3177 A 2321.8818,1964.7573 0 0 1 2458.7934,3373.0737 2321.8818,1964.7573 0 0 1 134.15234,1412.9985 2321.8818,1964.7573 0 0 1 2447.7303,-556.42703 2321.8818,1964.7573 0 0 1 4777.8831,1398.9563"
           sodipodi:open="true"
           sodipodi:end="6.2784206"
           sodipodi:start="0"
           sodipodi:ry="1964.7573"
           sodipodi:rx="2321.8818"
           sodipodi:cy="1408.3177"
           sodipodi:cx="2456.0276"
           sodipodi:type="arc"
           id="path3349-1"
           style="clip-rule:evenodd;opacity:1;fill:#4d7f3e;fill-opacity:1;fill-rule:evenodd;stroke:none;stroke-width:1;stroke-miterlimit:4;stroke-dasharray:none;stroke-opacity:1;image-rendering:optimizeQuality;shape-rendering:geometricPrecision;text-rendering:geometricPrecision" /><path
           d="M 3828.5208,3316.9331 A 2321.8818,1964.7573 0 0 1 1509.4047,5281.689 2321.8818,1964.7573 0 0 1 -815.23633,3321.6138 2321.8818,1964.7573 0 0 1 1498.3416,1352.1883 2321.8818,1964.7573 0 0 1 3828.4944,3307.5716"
           sodipodi:open="true"
           sodipodi:end="6.2784206"
           sodipodi:start="0"
           sodipodi:ry="1964.7573"
           sodipodi:rx="2321.8818"
           sodipodi:cy="3316.9331"
           sodipodi:cx="1506.6389"
           sodipodi:type="arc"
           id="path3349-7"
           style="clip-rule:evenodd;opacity:1;fill:#4d7f3e;fill-opacity:1;fill-rule:evenodd;stroke:none;stroke-width:1;stroke-miterlimit:4;stroke-dasharray:none;stroke-opacity:1;image-rendering:optimizeQuality;shape-rendering:geometricPrecision;text-rendering:geometricPrecision" /><path
           d="M 6181.354,3373.0691 A 2321.8818,1964.7573 0 0 1 3862.2379,5337.825 2321.8818,1964.7573 0 0 1 1537.5969,3377.7498 2321.8818,1964.7573 0 0 1 3851.1749,1408.3243 2321.8818,1964.7573 0 0 1 6181.3276,3363.7076"
           sodipodi:open="true"
           sodipodi:end="6.2784206"
           sodipodi:start="0"
           sodipodi:ry="1964.7573"
           sodipodi:rx="2321.8818"
           sodipodi:cy="3373.0691"
           sodipodi:cx="3859.4722"
           sodipodi:type="arc"
           id="path3349-4"
           style="clip-rule:evenodd;opacity:1;fill:#4d7f3e;fill-opacity:1;fill-rule:evenodd;stroke:none;stroke-width:1;stroke-miterlimit:4;stroke-dasharray:none;stroke-opacity:1;image-rendering:optimizeQuality;shape-rendering:geometricPrecision;text-rendering:geometricPrecision" /><path
           d="M 2321.881,2208.2444 A 2321.8816,1964.7573 0 0 1 2.7652281,4173.0003 2321.8816,1964.7573 0 0 1 -2321.8755,2212.9251 2321.8816,1964.7573 0 0 1 -8.2978395,243.49961 2321.8816,1964.7573 0 0 1 2321.8547,2198.8829"
           sodipodi:open="true"
           sodipodi:end="6.2784206"
           sodipodi:start="0"
           sodipodi:ry="1964.7573"
           sodipodi:rx="2321.8816"
           sodipodi:cy="2208.2444"
           sodipodi:cx="-0.00054275163"
           sodipodi:type="arc"
           id="path3349-7-4"
           style="clip-rule:evenodd;opacity:1;fill:#4d7f3e;fill-opacity:1;fill-rule:evenodd;stroke:none;stroke-width:1;stroke-miterlimit:4;stroke-dasharray:none;stroke-opacity:1;image-rendering:optimizeQuality;shape-rendering:geometricPrecision;text-rendering:geometricPrecision" /></g><g
         id="g4389"
         style="fill:#4d7f3e;fill-opacity:1"
         transform="matrix(0.66666666,0,0,0.69918698,-4.5450301e-6,2134.3307)"><path
           transform="scale(-1,1)"
           d="m -25571.577,1773.2003 a 2321.8816,1964.7573 0 0 1 -2319.116,1964.7559 2321.8816,1964.7573 0 0 1 -2324.641,-1960.0751 2321.8816,1964.7573 0 0 1 2313.578,-1969.42556 2321.8816,1964.7573 0 0 1 2330.152,1955.38336"
           sodipodi:open="true"
           sodipodi:end="6.2784206"
           sodipodi:start="0"
           sodipodi:ry="1964.7573"
           sodipodi:rx="2321.8816"
           sodipodi:cy="1773.2003"
           sodipodi:cx="-27893.459"
           sodipodi:type="arc"
           id="path3349-1-2"
           style="clip-rule:evenodd;opacity:1;fill:#4d7f3e;fill-opacity:1;fill-rule:evenodd;stroke:none;stroke-width:1;stroke-miterlimit:4;stroke-dasharray:none;stroke-opacity:1;image-rendering:optimizeQuality;shape-rendering:geometricPrecision;text-rendering:geometricPrecision" /><path
           transform="scale(-1,1)"
           d="m -26520.966,3681.8154 a 2321.8816,1964.7573 0 0 1 -2319.116,1964.756 2321.8816,1964.7573 0 0 1 -2324.641,-1960.0752 2321.8816,1964.7573 0 0 1 2313.578,-1969.4255 2321.8816,1964.7573 0 0 1 2330.153,1955.3833"
           sodipodi:open="true"
           sodipodi:end="6.2784206"
           sodipodi:start="0"
           sodipodi:ry="1964.7573"
           sodipodi:rx="2321.8816"
           sodipodi:cy="3681.8154"
           sodipodi:cx="-28842.848"
           sodipodi:type="arc"
           id="path3349-7-5"
           style="clip-rule:evenodd;opacity:1;fill:#4d7f3e;fill-opacity:1;fill-rule:evenodd;stroke:none;stroke-width:1;stroke-miterlimit:4;stroke-dasharray:none;stroke-opacity:1;image-rendering:optimizeQuality;shape-rendering:geometricPrecision;text-rendering:geometricPrecision" /><path
           d="M 32041.971,2208.2444 A 2321.8813,1964.7573 0 0 1 29722.856,4173.0003 2321.8813,1964.7573 0 0 1 27398.215,2212.9251 2321.8813,1964.7573 0 0 1 29711.793,243.49961 2321.8813,1964.7573 0 0 1 32041.945,2198.8829"
           sodipodi:open="true"
           sodipodi:end="6.2784206"
           sodipodi:start="0"
           sodipodi:ry="1964.7573"
           sodipodi:rx="2321.8813"
           sodipodi:cy="2208.2444"
           sodipodi:cx="29720.09"
           sodipodi:type="arc"
           id="path3349-7-4-1"
           style="clip-rule:evenodd;opacity:1;fill:#4d7f3e;fill-opacity:1;fill-rule:evenodd;stroke:none;stroke-width:1;stroke-miterlimit:4;stroke-dasharray:none;stroke-opacity:1;image-rendering:optimizeQuality;shape-rendering:geometricPrecision;text-rendering:geometricPrecision" /></g><g
         transform="matrix(0.66666666,0,0,0.69918698,-110.23304,1942.6332)"
         style="clip-rule:evenodd;fill:#4d7f3e;fill-opacity:1;fill-rule:evenodd;image-rendering:optimizeQuality;shape-rendering:geometricPrecision;text-rendering:geometricPrecision"
         id="g4357"><path
           transform="scale(-1,1)"
           d="m -19317.993,1717.0643 a 2321.8816,1964.7573 0 0 1 -2319.116,1964.756 2321.8816,1964.7573 0 0 1 -2324.641,-1960.0752 2321.8816,1964.7573 0 0 1 2313.578,-1969.42555 2321.8816,1964.7573 0 0 1 2330.152,1955.38335"
           sodipodi:open="true"
           sodipodi:end="6.2784206"
           sodipodi:start="0"
           sodipodi:ry="1964.7573"
           sodipodi:rx="2321.8816"
           sodipodi:cy="1717.0643"
           sodipodi:cx="-21639.875"
           sodipodi:type="arc"
           id="path3349-3-3"
           style="clip-rule:evenodd;opacity:1;fill:#4d7f3e;fill-opacity:1;fill-rule:evenodd;stroke:none;stroke-width:1;stroke-miterlimit:4;stroke-dasharray:none;stroke-opacity:1;image-rendering:optimizeQuality;shape-rendering:geometricPrecision;text-rendering:geometricPrecision" /><path
           transform="scale(-1,1)"
           d="m -18347.966,4093.4775 a 2321.8816,1964.7573 0 0 1 -2319.116,1964.756 2321.8816,1964.7573 0 0 1 -2324.641,-1960.0752 2321.8816,1964.7573 0 0 1 2313.578,-1969.4255 2321.8816,1964.7573 0 0 1 2330.153,1955.3833"
           sodipodi:open="true"
           sodipodi:end="6.2784206"
           sodipodi:start="0"
           sodipodi:ry="1964.7573"
           sodipodi:rx="2321.8816"
           sodipodi:cy="4093.4775"
           sodipodi:cx="-20669.848"
           sodipodi:type="arc"
           id="path3349-6-5"
           style="clip-rule:evenodd;opacity:1;fill:#4d7f3e;fill-opacity:1;fill-rule:evenodd;stroke:none;stroke-width:1;stroke-miterlimit:4;stroke-dasharray:none;stroke-opacity:1;image-rendering:optimizeQuality;shape-rendering:geometricPrecision;text-rendering:geometricPrecision" /><path
           transform="scale(-1,1)"
           d="m -20927.827,4692.2593 a 2321.8816,1964.7573 0 0 1 -2319.116,1964.7559 2321.8816,1964.7573 0 0 1 -2324.641,-1960.0752 2321.8816,1964.7573 0 0 1 2313.578,-1969.4255 2321.8816,1964.7573 0 0 1 2330.152,1955.3833"
           sodipodi:open="true"
           sodipodi:end="6.2784206"
           sodipodi:start="0"
           sodipodi:ry="1964.7573"
           sodipodi:rx="2321.8816"
           sodipodi:cy="4692.2593"
           sodipodi:cx="-23249.709"
           sodipodi:type="arc"
           id="path3349-5-5"
           style="clip-rule:evenodd;opacity:1;fill:#4d7f3e;fill-opacity:1;fill-rule:evenodd;stroke:#338000;stroke-width:0.95217323;stroke-miterlimit:4;stroke-dasharray:none;stroke-opacity:1;image-rendering:optimizeQuality;shape-rendering:geometricPrecision;text-rendering:geometricPrecision" /></g></g></g></svg>