<?xml version="1.0" encoding="UTF-8" standalone="no"?>
<!-- Created with Inkscape (http://www.inkscape.org/) -->

<svg
   xmlns:dc="http://purl.org/dc/elements/1.1/"
   xmlns:cc="http://creativecommons.org/ns#"
   xmlns:rdf="http://www.w3.org/1999/02/22-rdf-syntax-ns#"
   xmlns:svg="http://www.w3.org/2000/svg"
   xmlns="http://www.w3.org/2000/svg"
   xmlns:sodipodi="http://sodipodi.sourceforge.net/DTD/sodipodi-0.dtd"
   xmlns:inkscape="http://www.inkscape.org/namespaces/inkscape"
   version="1.1"
   width="59"
   height="130"
   id="svg2"
   inkscape:version="0.91 r13725"
   sodipodi:docname="vizor-master.svg">
  <sodipodi:namedview
     pagecolor="#ffffff"
     bordercolor="#666666"
     borderopacity="1"
     objecttolerance="10"
     gridtolerance="10"
     guidetolerance="10"
     inkscape:pageopacity="0"
     inkscape:pageshadow="2"
     inkscape:window-width="1366"
     inkscape:window-height="706"
     id="namedview58"
     showgrid="false"
     inkscape:zoom="4"
     inkscape:cx="-1.3798877"
     inkscape:cy="68.213068"
     inkscape:window-x="-8"
     inkscape:window-y="-8"
     inkscape:window-maximized="1"
     inkscape:current-layer="layer11"
     fit-margin-top="0"
     fit-margin-left="0"
     fit-margin-right="0"
     fit-margin-bottom="0" />
  <defs
     id="defs4" />
  <metadata
     id="metadata7">
    <rdf:RDF>
      <cc:Work
         rdf:about="">
        <dc:format>image/svg+xml</dc:format>
        <dc:type
           rdf:resource="http://purl.org/dc/dcmitype/StillImage" />
        <dc:title />
      </cc:Work>
    </rdf:RDF>
  </metadata>
  <g
     inkscape:groupmode="layer"
     id="layer13"
     inkscape:label="leftarm-lower"
     style="display:inline"
     transform="translate(0,-3.0578715e-5)">
    <g
       id="g4522"
       transform="translate(2,-4.9999995)">
      <path
         inkscape:connector-curvature="0"
         style="display:inline;fill:#d38d5f;fill-opacity:1;stroke:none;enable-background:new"
         id="path3832-3-8"
         d="m 30.744163,89.00008 c -3.165494,0 -5.733412,2.25587 -5.733412,5.03059 0,0.23414 0.02793,0.43009 0.06283,0.61995 -0.112008,0.59441 -0.06283,2.00509 -0.06283,2.533 0,1.55218 0.67365,2.81641 1.507972,2.81641 0.547251,0 1.023037,-0.54833 1.288054,-1.36392 0.26889,0.77571 0.7236,1.29306 1.256638,1.29306 0.486682,0 0.917536,-0.42979 1.1938,-1.09822 0.275538,0.68436 0.698848,1.13366 1.193811,1.13366 0.472774,0 0.885397,-0.40924 1.162387,-1.04509 0.276975,0.63478 0.688675,1.04509 1.16239,1.04509 0.739768,0 1.362277,-0.9841 1.492259,-2.30273 0.08948,0.0306 0.172775,0.0531 0.267042,0.0531 0.834303,0 1.460896,-0.55564 1.460836,-2.12559 -0.0044,-0.65053 0.04764,-1.29874 -0.125664,-1.84218 -0.206433,-0.6473 -0.582154,-1.65511 -0.989602,-1.93074 -0.934444,-1.66563 -2.879786,-2.81641 -5.136511,-2.81641 z" />
      <path
         inkscape:connector-curvature="0"
         style="display:inline;fill:#002255;fill-opacity:1;stroke:none"
         id="path3002-1-4-9-0"
         d="m 25,87.00003 c 0,1.63278 0.222989,3.96018 1.275109,4.95468 0.878341,0.83022 2.468466,1.04532 3.724891,1.04532 1.275135,0 2.969119,-0.23018 3.852349,-1.08265 C 34.881831,90.92376 35,88.61253 35,87.00003 l -5,0 z" />
      <path
         id="rect4265-0-2"
         d="m 30,69 a 5,5 0 0 0 -5,5 l 0,13 c 0,0.81639 0.223271,1.979312 1.275391,2.476562 C 27.153732,89.891683 28.743575,90 30,90 31.275135,90 32.968332,89.885214 33.851562,89.458984 34.881045,88.962174 35,87.80625 35,87 l 0,-13 a 5,5 0 0 0 -5,-5 z"
         style="display:inline;fill:#0044aa;fill-opacity:1;stroke:none;stroke-opacity:1"
         inkscape:connector-curvature="0" />
    </g>
  </g>
  <g
     inkscape:groupmode="layer"
     id="layer19"
     inkscape:label="leftarm-upper"
     style="display:inline"
     transform="translate(0,-370.00003)">
    <path
       style="display:inline;fill:#0044aa;fill-opacity:1;stroke:none;stroke-opacity:1"
       d="m 32,420.00003 a 5,5 0 0 0 -5,5 l 0,14 a 5,5 0 0 0 5,5 5,5 0 0 0 5,-5 l 0,-14 a 5,5 0 0 0 -5,-5 z"
       id="path3434-57-2"
       inkscape:connector-curvature="0" />
  </g>
  <g
     inkscape:groupmode="layer"
     id="layer12"
     inkscape:label="leftleg-foot"
     style="display:inline">
    <g
       transform="translate(0,-4.331173e-6)"
       style="display:inline"
       id="g4618">
      <path
         inkscape:connector-curvature="0"
         d="m 22.258502,127 c 0,0.80554 -0.214747,2.06352 1.514353,2.59871 1.793385,0.55508 5.580917,0.37257 8.356395,0.37257 3.067704,0 6.50652,-0.0256 8.316947,-0.68659 1.40678,-0.5135 1.553804,-1.56712 1.553804,-2.28469 l -9.870751,0 z"
         id="path4060-2-4-2"
         style="display:inline;fill:#595959;fill-opacity:1;stroke:none" />
      <path
         inkscape:connector-curvature="0"
         id="path3469-4"
         d="m 28.25,113 a 6,6 0 0 0 -6,6 l 0,8.5 9.875,0 2.125,0 7.75,0 a 9.875,8.5 0 0 0 -7.75,-8.29492 L 34.25,119 a 6,6 0 0 0 -6,-6 z"
         style="display:inline;fill:#0d0d0d;fill-opacity:1;stroke:none;stroke-opacity:1" />
    </g>
  </g>
  <g
     inkscape:groupmode="layer"
     id="layer20"
     inkscape:label="leftleg-lower"
     style="display:inline"
     transform="translate(0,-370.00003)">
    <g
       style="display:inline"
       id="g4614">
      <path
         id="rect3471-7-3"
         d="m 22.25,479.00003 0,10 a 6,6 0 0 0 6,6 6,6 0 0 0 6,-6 l 0,-10 -12,0 z"
         style="display:inline;fill:#0d0d0d;fill-opacity:1;stroke:none;stroke-opacity:1"
         inkscape:connector-curvature="0" />
      <path
         id="path4252-1"
         d="m 28.25,466.75003 a 6.25,6.25 0 0 0 -6.25,6.25 l 0,5 0,0.17188 c 1.7e-5,7.6e-4 0.03123,-7.7e-4 0.03125,0 0.03767,1.64656 0.330743,3.78019 1.558594,4.73437 1.097925,0.85321 3.105244,1.09375 4.675781,1.09375 1.593917,0 3.698698,-0.25871 4.802734,-1.13477 1.199193,-0.95159 1.4086,-3.06687 1.431641,-4.69335 8.03e-4,-0.056 1.77e-4,-0.11321 0,-0.17188 l 0,-5 a 6.25,6.25 0 0 0 -6.25,-6.25 z"
         style="display:inline;fill:#0044aa;fill-opacity:1;stroke:none;stroke-opacity:1"
         inkscape:connector-curvature="0" />
    </g>
  </g>
  <g
     inkscape:groupmode="layer"
     id="layer9"
     inkscape:label="leftleg-upper"
     style="display:inline"
     transform="translate(0,-3.0578715e-5)">
    <path
       style="display:inline;fill:#0044aa;fill-opacity:1;stroke:none;stroke-opacity:1"
       d="m 28.25,78.000032 a 6.25,6.25 0 0 0 -6.25,6.25 l 0,18.749998 a 6.25,6.25 0 0 0 6.25,6.25 6.25,6.25 0 0 0 6.25,-6.25 l 0,-18.749998 a 6.25,6.25 0 0 0 -6.25,-6.25 z"
       id="path4252-0-5"
       inkscape:connector-curvature="0" />
  </g>
  <g
     inkscape:groupmode="layer"
     id="layer16"
     inkscape:label="torso"
     style="display:inline"
     transform="translate(0,-370.00003)">
    <path
       sodipodi:nodetypes="ssscssscs"
       style="fill:#0055d4;fill-opacity:1;stroke:none"
       id="path3900"
       d="m 11.744505,416.8809 c -3.3602164,3.77661 -7.1271375,15.56872 -7.1271375,21.91045 0,5.29866 -0.3688377,8.64494 1.5526326,12.57262 2.6121721,5.33956 10.1241629,8.63109 15.6057779,8.63603 5.481613,0.006 13.026307,-3.28682 15.643205,-8.63603 1.921468,-3.92768 1.552633,-7.27396 1.552633,-12.57262 0,-6.34173 -3.766921,-18.13384 -7.12714,-21.91045 -3.560632,-4.00188 -5.885443,-5.99954 -10.054662,-5.99954 -4.169219,0 -6.484679,1.99766 -10.045309,5.99954 z"
       inkscape:connector-curvature="0" />
  </g>
  <g
     inkscape:groupmode="layer"
     id="layer10"
     inkscape:label="rightleg-foot"
     style="display:inline">
    <g
       transform="translate(0,-4.331173e-6)"
       style="display:inline"
       id="g4465">
      <path
         inkscape:connector-curvature="0"
         d="m 9.2585021,127 c 0,0.80554 -0.214747,2.06352 1.5143529,2.59871 1.793385,0.55508 5.580917,0.37257 8.356395,0.37257 3.067704,0 6.50652,-0.0256 8.316947,-0.68659 1.40678,-0.5135 1.553804,-1.56712 1.553804,-2.28469 l -9.870751,0 z"
         id="path4060-2-4"
         style="display:inline;fill:#666666;fill-opacity:1;stroke:none" />
      <path
         id="path3469"
         d="m 15.25,113 a 6,6 0 0 0 -6,6 l 0,8.5 9.875,0 2.125,0 7.75,0 a 9.875,8.5 0 0 0 -7.75,-8.29492 L 21.25,119 a 6,6 0 0 0 -6,-6 z"
         style="display:inline;fill:#1a1a1a;fill-opacity:1;stroke:none;stroke-opacity:1"
         inkscape:connector-curvature="0" />
    </g>
  </g>
  <g
     inkscape:groupmode="layer"
     id="layer18"
     inkscape:label="rightleg-lower"
     style="display:inline"
     transform="translate(0,-370.00003)">
    <g
       style="display:inline"
       id="g4460">
      <path
         id="rect3471-7"
         transform="translate(0,370.00003)"
         d="m 9.25,109 0,10 a 6,6 0 0 0 6,6 6,6 0 0 0 6,-6 l 0,-10 -12,0 z"
         style="display:inline;fill:#1a1a1a;fill-opacity:1;stroke:none;stroke-opacity:1"
         inkscape:connector-curvature="0" />
      <path
         id="path4252"
         d="m 15.25,466.75003 a 6.25,6.25 0 0 0 -6.25,6.25 l 0,5 0,0.17188 c 1.7e-5,7.6e-4 0.03123,-7.7e-4 0.03125,0 0.03767,1.64656 0.330743,3.78019 1.558594,4.73437 1.097925,0.85321 3.105244,1.09375 4.675781,1.09375 1.593917,0 3.698698,-0.25871 4.802734,-1.13477 1.199193,-0.95159 1.4086,-3.06687 1.431641,-4.69335 8.03e-4,-0.056 1.77e-4,-0.11321 0,-0.17188 l 0,-5 a 6.25,6.25 0 0 0 -6.25,-6.25 z"
         style="display:inline;fill:#0055d4;fill-opacity:1;stroke:none;stroke-opacity:1"
         inkscape:connector-curvature="0" />
    </g>
  </g>
  <g
     inkscape:groupmode="layer"
     id="layer8"
     inkscape:label="rightleg-upper"
     style="display:inline"
     transform="translate(0,-3.0578715e-5)">
    <path
       style="display:inline;fill:#0055d4;fill-opacity:1;stroke:none;stroke-opacity:1"
       d="m 15.25,78.000031 a 6.25,6.25 0 0 0 -6.25,6.25 l 0,18.749999 a 6.25,6.25 0 0 0 6.25,6.25 6.25,6.25 0 0 0 6.25,-6.25 l 0,-18.749999 a 6.25,6.25 0 0 0 -6.25,-6.25 z"
       id="path4252-0"
       inkscape:connector-curvature="0" />
  </g>
  <g
     inkscape:groupmode="layer"
     id="layer17"
     inkscape:label="rightarm-lower"
     style="display:inline"
     transform="translate(0,-370.00003)">
    <g
       id="g3623"
       transform="translate(-32,-4.9999995)">
      <path
         inkscape:connector-curvature="0"
         style="display:inline;fill:#deaa87;stroke:none;enable-background:new"
         id="path3832-3"
         d="m 45.744163,459.00008 c -3.165494,0 -5.733412,2.25587 -5.733412,5.03059 0,0.23414 0.02793,0.43009 0.06283,0.61995 -0.112008,0.59441 -0.06283,2.00509 -0.06283,2.533 0,1.55218 0.67365,2.81641 1.507972,2.81641 0.547251,0 1.023037,-0.54833 1.288054,-1.36392 0.26889,0.77571 0.7236,1.29306 1.256638,1.29306 0.486682,0 0.917536,-0.42979 1.1938,-1.09822 0.275538,0.68436 0.698848,1.13366 1.193811,1.13366 0.472774,0 0.885397,-0.40924 1.162387,-1.04509 0.276975,0.63478 0.688675,1.04509 1.16239,1.04509 0.739768,0 1.362277,-0.9841 1.492259,-2.30273 0.08948,0.0306 0.172775,0.0531 0.267042,0.0531 0.834303,0 1.460896,-0.55564 1.460836,-2.12559 -0.0044,-0.65053 0.04764,-1.29874 -0.125664,-1.84218 -0.206433,-0.6473 -0.582154,-1.65511 -0.989602,-1.93074 -0.934444,-1.66563 -2.879786,-2.81641 -5.136511,-2.81641 z" />
      <path
         inkscape:connector-curvature="0"
         style="display:inline;fill:#003380;fill-opacity:1;stroke:none"
         id="path3002-1-4-9"
         d="m 40,457.00003 c 0,1.63278 0.222989,3.96018 1.275109,4.95468 0.878341,0.83022 2.468466,1.04532 3.724891,1.04532 1.275135,0 2.969119,-0.23018 3.852349,-1.08265 C 49.881831,460.92376 50,458.61253 50,457.00003 l -5,0 z" />
      <path
         id="rect4265-0"
         transform="translate(0,370)"
         d="m 45,69 a 5,5 0 0 0 -5,5 l 0,13 c 0,0.81639 0.223271,1.979312 1.275391,2.476562 C 42.153732,89.891683 43.743575,90 45,90 46.275135,90 47.968332,89.885214 48.851562,89.458984 49.881045,88.962174 50,87.80625 50,87 l 0,-13 a 5,5 0 0 0 -5,-5 z"
         style="display:inline;fill:#0055d4;fill-opacity:1;stroke:none;stroke-opacity:1"
         inkscape:connector-curvature="0" />
    </g>
  </g>
  <g
     inkscape:groupmode="layer"
     id="layer11"
     inkscape:label="rightarm-upper"
     style="display:inline"
     transform="translate(0,-3.0578715e-5)">
    <path
       style="display:inline;fill:#0055d4;fill-opacity:1;stroke:none;stroke-opacity:1"
       d="m 13,50.000031 a 5,5 0 0 0 -5,5 l 0,14 a 5,5 0 0 0 5,5 5,5 0 0 0 5,-5 l 0,-14 a 5,5 0 0 0 -5,-5 z"
       id="path3434-57"
       inkscape:connector-curvature="0" />
  </g>
  <g
     inkscape:groupmode="layer"
     id="layer15"
     inkscape:label="head"
     style="display:inline"
     transform="translate(0,-370.00003)">
    <g
       id="g3487">
      <path
         inkscape:connector-curvature="0"
         d="m 33.001962,427.10042 a 11.123785,5.8416351 21.285763 0 1 -20.844625,-7.75576 11.123785,5.8416351 21.285763 0 1 20.844625,7.75576 z"
         id="path3105"
         style="display:inline;fill:#003380;fill-opacity:1;stroke:none" />
      <path
         inkscape:connector-curvature="0"
         d="m 30.024152,424.88306 a 8.0482332,4.4855306 24.48001 1 1 -14.889018,-6.03226 8.0482332,4.4855306 24.48001 0 1 14.889018,6.03226 z"
         id="path3105-0"
         style="display:inline;fill:#d38d5f;fill-opacity:1;stroke:none" />
      <g
         transform="matrix(1.000789,0,0,0.9923077,0,3.3077147)"
         id="g3399"
         style="display:inline">
        <g
           transform="matrix(0.30232558,0,0,0.30232558,-1.2332777e-6,181.37888)"
           id="layer5"
           style="display:inline"
           inkscape:export-filename="C:\Users\John\Desktop\head.png"
           inkscape:export-xdpi="90"
           inkscape:export-ydpi="90">
          <g
             transform="matrix(-0.96523239,0,0,1.0457832,366.77516,286.04845)"
             id="layer1"
             style="display:inline;fill:#deaa87;stroke:none">
            <path
               inkscape:connector-curvature="0"
               d="m 364.44608,410.92209 c 0,43.3938 -67.56822,101.91244 -113.13171,101.91244 -45.56349,0 -47.45138,-54.93569 -47.45138,-98.32949 0,-43.39381 36.93651,-78.57143 82.5,-78.57143 45.56349,0 78.08309,31.59467 78.08309,74.98848 z"
               id="path2987"
               style="fill:#deaa87;stroke:none" />
          </g>
          <path
             inkscape:connector-curvature="0"
             d="m 138.30805,756.86218 c -1.04989,1.65072 -1.94703,3.34636 -2.75934,5.09365 -0.75238,1.65706 -1.39052,2.64041 0.85032,3.40329 2.09329,0.46895 4.24893,0.30723 6.33746,0.79189 1.89719,0.5688 2.76184,1.81915 3.21819,3.4259 0.2587,1.4582 -0.62475,2.47212 -1.74859,3.45426 -2.39036,1.3307 -4.92807,2.87547 -7.73889,3.50743 -1.5942,0.28303 -3.22867,0.29203 -4.8491,0.30933 -1.91629,0.13629 -3.43343,-0.72451 -4.85516,-1.73228 -0.2543,-0.20735 -0.50861,-0.4147 -0.76291,-0.62206 0,0 3.56547,-1.91153 3.56547,-1.91153 l 0,0 c 0.24987,0.19939 0.49974,0.39876 0.74962,0.59815 1.40333,0.95984 2.85428,1.67056 4.7032,1.51697 1.60364,-0.0262 3.22581,-0.0468 4.78994,-0.39045 1.63962,-0.44289 5.72814,-2.55451 -0.17236,0.48073 -0.2285,0.11755 0.4499,-0.2452 0.67486,-0.3678 1.10282,-0.84287 2.06897,-1.76137 1.93862,-3.10865 -0.39569,-1.49883 -1.16996,-2.61936 -2.96192,-3.09565 -2.11256,-0.4261 -4.308,-0.26568 -6.38827,-0.83531 -2.32903,-0.96359 -2.0519,-2.02657 -1.15218,-3.90101 0.8205,-1.73124 1.63934,-3.44853 2.71888,-5.07489 0,0 3.84216,-1.54197 3.84216,-1.54197 z"
             id="path3870"
             style="fill:#c87137;fill-opacity:1;stroke:none" />
          <path
             inkscape:connector-curvature="0"
             d="m 138.10382,796.86209 c -5.09576,-0.0509 -10.19206,-0.0433 -15.28815,-0.0419 -6.471,0.0907 -10.6373,-1.63872 -15.55028,-4.64193 -3.81513,-2.45888 -6.9526,-5.41206 -9.736174,-8.55839 -1.43446,-1.68284 -3.09617,-3.23738 -4.52919,-4.92012 0,0 4.10926,-1.83752 4.10926,-1.83752 l 0,0 c 1.42301,1.6841 3.091194,3.23383 4.491074,4.93115 2.71459,3.13545 5.79358,6.07603 9.58677,8.49844 4.88179,2.95407 8.99152,4.54734 15.37369,4.44608 5.14643,9.5e-4 10.29308,0.009 15.43921,-0.0419 0,0 -3.89621,2.16628 -3.89621,2.16628 z"
             id="path3876"
             style="fill:#c87137;fill-opacity:1;stroke:none" />
        </g>
        <g
           transform="matrix(0.30232558,0,0,0.30232558,-1.2332777e-6,181.37888)"
           id="layer7"
           style="display:inline"
           inkscape:export-filename="C:\Users\John\Desktop\head.png"
           inkscape:export-xdpi="90"
           inkscape:export-ydpi="90">
          <g
             transform="matrix(-1.1524804,0,0,1.1313256,413.91374,249.33364)"
             id="layer2"
             style="display:inline;fill:#b3b3b3;fill-opacity:1;stroke:none">
            <path
               inkscape:connector-curvature="0"
               d="m 163.57143,380.57647 a 62.857145,58.214289 0 0 1 125.71429,1e-5 l -62.85715,0 z"
               transform="matrix(1.27689,0,0,1.4950281,-10.235731,-152.21357)"
               id="path2993"
               style="fill:#b3b3b3;fill-opacity:1;stroke:none" />
          </g>
          <g
             transform="matrix(-1.0801697,0,0,1.0742068,387.94023,272.00131)"
             id="layer3"
             style="display:inline;fill:#999999;fill-opacity:1;stroke:none">
            <path
               inkscape:connector-curvature="0"
               d="m 163.57143,380.57647 a 62.857145,58.214289 0 0 1 125.71429,1e-5 l -62.85715,0 z"
               transform="matrix(0.66257339,0,0,-0.98407702,167.47446,792.33408)"
               id="path2993-1"
               style="fill:#999999;fill-opacity:1;stroke:none" />
          </g>
          <g
             transform="matrix(-1.0801697,0,0,0.85936545,387.94023,360.51926)"
             id="layer3-1"
             style="display:inline;fill:#b3b3b3;fill-opacity:1;stroke:none">
            <path
               inkscape:connector-curvature="0"
               d="m 190,427.375 a 40,39.999997 0 0 0 80,0 l -40,0 -40,0 z"
               transform="matrix(-1.0411868,0,0,1.4321837,556.97297,-194.24366)"
               id="path2993-1-7"
               style="fill:#b3b3b3;fill-opacity:1;stroke:none" />
          </g>
        </g>
        <g
           transform="matrix(0.30232558,0,0,0.30232558,-1.2332777e-6,181.37888)"
           id="layer6"
           style="display:inline"
           inkscape:export-filename="C:\Users\John\Desktop\head.png"
           inkscape:export-xdpi="90"
           inkscape:export-ydpi="90">
          <g
             transform="matrix(-0.9840508,0,0,0.9038681,378.23624,320.07622)"
             id="layer4"
             style="display:inline;fill:#f2f2f2;fill-opacity:1;stroke:none">
            <path
               inkscape:connector-curvature="0"
               d="m 358.96139,432.06514 c 0,30.25928 -55.63769,39.99464 -96.86181,39.99464 -28.2909,0 -57.59527,3.36646 -70.6175,-4.98538 -5.95312,-3.81806 -5.25036,-10.94741 -5.25036,-20.44063 0,-15.54325 -0.80399,-44.91003 17.00186,-64.496 7.80439,-8.58462 16.98373,-15.55845 28.79021,-19.40213 13.69664,-4.45903 28.16153,-6.17259 38.92876,-6.17259 41.22412,0 88.00884,45.24281 88.00884,75.50209 z"
               id="path3825"
               style="fill:#f2f2f2;fill-opacity:1;stroke:none" />
          </g>
        </g>
      </g>
    </g>
  </g>
</svg>
