<?xml version="1.0" encoding="UTF-8" standalone="no"?>
<!-- Created with Inkscape (http://www.inkscape.org/) -->

<svg
   xmlns:dc="http://purl.org/dc/elements/1.1/"
   xmlns:cc="http://creativecommons.org/ns#"
   xmlns:rdf="http://www.w3.org/1999/02/22-rdf-syntax-ns#"
   xmlns:svg="http://www.w3.org/2000/svg"
   xmlns="http://www.w3.org/2000/svg"
   xmlns:sodipodi="http://sodipodi.sourceforge.net/DTD/sodipodi-0.dtd"
   xmlns:inkscape="http://www.inkscape.org/namespaces/inkscape"
   width="1280"
   height="500"
   viewBox="0 0 1280 500"
   id="svg5695"
   version="1.1"
   inkscape:version="0.91 r13725"
   shape-rendering="crispEdges"
   inkscape:export-filename="C:\Users\John\Desktop\mountains.png"
   inkscape:export-xdpi="90"
   inkscape:export-ydpi="90"
   sodipodi:docname="stage2-bg-middle-master.svg">
  <defs
     id="defs5697" />
  <sodipodi:namedview
     id="base"
     pagecolor="#ffffff"
     bordercolor="#666666"
     borderopacity="1.0"
     inkscape:pageopacity="0.0"
     inkscape:pageshadow="2"
     inkscape:zoom="0.49497475"
     inkscape:cx="598.10068"
     inkscape:cy="300.96176"
     inkscape:document-units="px"
     inkscape:current-layer="g6300"
     showgrid="false"
     units="px"
     inkscape:window-width="1366"
     inkscape:window-height="706"
     inkscape:window-x="-8"
     inkscape:window-y="-8"
     inkscape:window-maximized="1" />
  <metadata
     id="metadata5700">
    <rdf:RDF>
      <cc:Work
         rdf:about="">
        <dc:format>image/svg+xml</dc:format>
        <dc:type
           rdf:resource="http://purl.org/dc/dcmitype/StillImage" />
        <dc:title></dc:title>
      </cc:Work>
    </rdf:RDF>
  </metadata>
  <g
     inkscape:label="Layer 1"
     inkscape:groupmode="layer"
     id="layer1"
     transform="translate(0,-552.36218)">
    <path
       inkscape:connector-curvature="0"
       style="display:inline;fill:#552200;fill-rule:evenodd;stroke:none;stroke-width:1px;stroke-linecap:butt;stroke-linejoin:miter;stroke-opacity:1"
       d="m 272.72728,552.3622 -113.63637,318.18179 11.36364,181.81821 56.81817,0 L 340.9091,768.27128 204.54545,915.99852 295.45455,654.63492 272.72728,552.3622 Z M 90.909091,779.6349 0,1052.3622 l 102.27273,0 -11.363639,-272.7273 z"
       id="path4879" />
    <path
       inkscape:connector-curvature="0"
       style="display:inline;fill:#803300;fill-rule:evenodd;stroke:none;stroke-width:1px;stroke-linecap:butt;stroke-linejoin:miter;stroke-opacity:1"
       d="m 340.9091,597.81674 -45.45455,56.81818 -90.9091,261.3636 136.36365,-147.72724 0,-170.45454 z m 0,170.45454 -113.63638,284.09092 90.9091,0 181.81818,0 -159.0909,-284.09092 z m -250.000009,11.36362 11.363639,272.7273 68.18182,0 -79.545459,-272.7273 z"
       id="path4883" />
    <path
       inkscape:connector-curvature="0"
       style="display:inline;fill:#aa4400;fill-rule:evenodd;stroke:none;stroke-width:1px;stroke-linecap:butt;stroke-linejoin:miter;stroke-opacity:1"
       d="m 272.72728,552.3622 22.72727,102.27272 45.45455,-56.81818 -68.18182,-45.45454 z m 68.18182,45.45454 0,170.45454 L 500,1052.3622 340.9091,597.81674 Z M 90.909091,779.6349 170.45455,1052.3622 159.09091,870.54399 90.909091,779.6349 Z"
       id="path4885" />
    <path
       inkscape:connector-curvature="0"
       style="display:inline;fill:#552200;fill-rule:evenodd;stroke:none;stroke-width:1px;stroke-linecap:butt;stroke-linejoin:miter;stroke-opacity:1"
       d="M 619.47368,719.03095 550,1052.3622 l 69.47368,0 57.89474,0 -34.73684,-277.77502 -23.1579,-11.11249 0,-44.44374 z"
       id="path4141-2-6" />
    <path
       inkscape:connector-curvature="0"
       style="display:inline;fill:#803300;fill-rule:evenodd;stroke:none;stroke-width:1px;stroke-linecap:butt;stroke-linejoin:miter;stroke-opacity:1"
       d="m 665.78947,652.3622 -23.15789,33.33435 -23.1579,33.3344 0,44.44374 23.1579,11.11249 34.73684,277.77502 28.94737,0 -34.73684,-211.10939 -5.78948,-188.89061 z"
       id="path4143-1-2" />
    <path
       inkscape:connector-curvature="0"
       style="display:inline;fill:#d45500;fill-rule:evenodd;stroke:none;stroke-width:1px;stroke-linecap:butt;stroke-linejoin:miter;stroke-opacity:1"
       d="M 665.78947,652.3622 735.26316,919.03093 700.52632,674.58719 665.78947,652.3622 Z m 69.47369,266.66873 -28.94737,133.33127 63.68421,0 -34.73684,-133.33127 z"
       id="path4157-0-4" />
    <path
       inkscape:connector-curvature="0"
       style="display:inline;fill:#aa4400;fill-rule:evenodd;stroke:none;stroke-width:1px;stroke-linecap:butt;stroke-linejoin:miter;stroke-opacity:1"
       d="m 665.78947,652.3622 5.78948,188.89061 34.73684,211.10939 28.94737,-133.33127 -69.47369,-266.66873 z"
       id="path4167-3-8" />
    <path
       inkscape:connector-curvature="0"
       style="display:inline;fill:#552200;fill-rule:evenodd;stroke:none;stroke-width:1px;stroke-linecap:butt;stroke-linejoin:miter;stroke-opacity:1"
       d="M 1010.5263,802.36377 900,1052.3622 l 110.5263,0 92.1053,0 -55.2632,-208.33125 -36.8421,-8.33436 0,-33.33282 z"
       id="path4141-2-6-8" />
    <path
       inkscape:connector-curvature="0"
       style="display:inline;fill:#803300;fill-rule:evenodd;stroke:none;stroke-width:1px;stroke-linecap:butt;stroke-linejoin:miter;stroke-opacity:1"
       d="m 1084.2106,752.3622 -36.8422,25.00077 -36.8421,25.0008 0,33.33282 36.8421,8.33436 55.2632,208.33125 46.0526,0 -55.2632,-158.33201 -9.2104,-141.66799 z"
       id="path4143-1-2-8" />
    <path
       inkscape:connector-curvature="0"
       style="display:inline;fill:#d45500;fill-rule:evenodd;stroke:none;stroke-width:1px;stroke-linecap:butt;stroke-linejoin:miter;stroke-opacity:1"
       d="m 1084.2106,752.3622 110.5262,200.00159 -55.2631,-183.33285 -55.2631,-16.66874 z m 110.5262,200.00159 -46.0526,99.99841 101.3158,0 -55.2632,-99.99841 z"
       id="path4157-0-4-6" />
    <path
       inkscape:connector-curvature="0"
       style="display:inline;fill:#aa4400;fill-rule:evenodd;stroke:none;stroke-width:1px;stroke-linecap:butt;stroke-linejoin:miter;stroke-opacity:1"
       d="m 1084.2106,752.3622 9.2104,141.66799 55.2632,158.33201 46.0526,-99.99841 -110.5262,-200.00159 z"
       id="path4167-3-8-8" />
  </g>
  <g
     transform="translate(0,-552.36218)"
     id="g6300"
     inkscape:groupmode="layer"
     inkscape:label="Layer 2">
    <path
       id="path6302"
       d="m 272.72728,552.3622 -113.63637,318.18179 11.36364,181.81821 56.81817,0 L 340.9091,768.27128 204.54545,915.99852 295.45455,654.63492 272.72728,552.3622 Z M 90.909091,779.6349 0,1052.3622 l 102.27273,0 -11.363639,-272.7273 z"
       style="display:inline;fill:#552200;fill-rule:evenodd;stroke:none;stroke-width:1px;stroke-linecap:butt;stroke-linejoin:miter;stroke-opacity:1"
       inkscape:connector-curvature="0" />
    <path
       id="path6304"
       d="m 340.9091,597.81674 -45.45455,56.81818 -90.9091,261.3636 136.36365,-147.72724 0,-170.45454 z m 0,170.45454 -113.63638,284.09092 90.9091,0 181.81818,0 -159.0909,-284.09092 z m -250.000009,11.36362 11.363639,272.7273 68.18182,0 -79.545459,-272.7273 z"
       style="display:inline;fill:#803300;fill-rule:evenodd;stroke:none;stroke-width:1px;stroke-linecap:butt;stroke-linejoin:miter;stroke-opacity:1"
       inkscape:connector-curvature="0" />
    <path
       id="path6306"
       d="m 272.72728,552.3622 22.72727,102.27272 45.45455,-56.81818 -68.18182,-45.45454 z m 68.18182,45.45454 0,170.45454 L 500,1052.3622 340.9091,597.81674 Z M 90.909091,779.6349 170.45455,1052.3622 159.09091,870.54399 90.909091,779.6349 Z"
       style="display:inline;fill:#aa4400;fill-rule:evenodd;stroke:none;stroke-width:1px;stroke-linecap:butt;stroke-linejoin:miter;stroke-opacity:1"
       inkscape:connector-curvature="0" />
    <path
       id="path6308"
       d="M 619.47368,719.03095 550,1052.3622 l 69.47368,0 57.89474,0 -34.73684,-277.77502 -23.1579,-11.11249 0,-44.44374 z"
       style="display:inline;fill:#552200;fill-rule:evenodd;stroke:none;stroke-width:1px;stroke-linecap:butt;stroke-linejoin:miter;stroke-opacity:1"
       inkscape:connector-curvature="0" />
    <path
       id="path6310"
       d="m 665.78947,652.3622 -23.15789,33.33435 -23.1579,33.3344 0,44.44374 23.1579,11.11249 34.73684,277.77502 28.94737,0 -34.73684,-211.10939 -5.78948,-188.89061 z"
       style="display:inline;fill:#803300;fill-rule:evenodd;stroke:none;stroke-width:1px;stroke-linecap:butt;stroke-linejoin:miter;stroke-opacity:1"
       inkscape:connector-curvature="0" />
    <path
       id="path6312"
       d="M 665.78947,652.3622 735.26316,919.03093 700.52632,674.58719 665.78947,652.3622 Z m 69.47369,266.66873 -28.94737,133.33127 63.68421,0 -34.73684,-133.33127 z"
       style="display:inline;fill:#d45500;fill-rule:evenodd;stroke:none;stroke-width:1px;stroke-linecap:butt;stroke-linejoin:miter;stroke-opacity:1"
       inkscape:connector-curvature="0" />
    <path
       id="path6314"
       d="m 665.78947,652.3622 5.78948,188.89061 34.73684,211.10939 28.94737,-133.33127 -69.47369,-266.66873 z"
       style="display:inline;fill:#aa4400;fill-rule:evenodd;stroke:none;stroke-width:1px;stroke-linecap:butt;stroke-linejoin:miter;stroke-opacity:1"
       inkscape:connector-curvature="0" />
    <path
       id="path6316"
       d="M 1010.5263,802.36377 900,1052.3622 l 110.5263,0 92.1053,0 -55.2632,-208.33125 -36.8421,-8.33436 0,-33.33282 z"
       style="display:inline;fill:#552200;fill-rule:evenodd;stroke:none;stroke-width:1px;stroke-linecap:butt;stroke-linejoin:miter;stroke-opacity:1"
       inkscape:connector-curvature="0" />
    <path
       id="path6318"
       d="m 1084.2106,752.3622 -36.8422,25.00077 -36.8421,25.0008 0,33.33282 36.8421,8.33436 55.2632,208.33125 46.0526,0 -55.2632,-158.33201 -9.2104,-141.66799 z"
       style="display:inline;fill:#803300;fill-rule:evenodd;stroke:none;stroke-width:1px;stroke-linecap:butt;stroke-linejoin:miter;stroke-opacity:1"
       inkscape:connector-curvature="0" />
    <path
       id="path6320"
       d="m 1084.2106,752.3622 110.5262,200.00159 -55.2631,-183.33285 -55.2631,-16.66874 z m 110.5262,200.00159 -46.0526,99.99841 101.3158,0 -55.2632,-99.99841 z"
       style="display:inline;fill:#d45500;fill-rule:evenodd;stroke:none;stroke-width:1px;stroke-linecap:butt;stroke-linejoin:miter;stroke-opacity:1"
       inkscape:connector-curvature="0" />
    <path
       id="path6322"
       d="m 1084.2106,752.3622 9.2104,141.66799 55.2632,158.33201 46.0526,-99.99841 -110.5262,-200.00159 z"
       style="display:inline;fill:#aa4400;fill-rule:evenodd;stroke:none;stroke-width:1px;stroke-linecap:butt;stroke-linejoin:miter;stroke-opacity:1"
       inkscape:connector-curvature="0" />
  </g>
</svg>
