<?xml version="1.0" encoding="UTF-8" standalone="no"?>
<!-- Created with Inkscape (http://www.inkscape.org/) -->

<svg
   xmlns:dc="http://purl.org/dc/elements/1.1/"
   xmlns:cc="http://creativecommons.org/ns#"
   xmlns:rdf="http://www.w3.org/1999/02/22-rdf-syntax-ns#"
   xmlns:svg="http://www.w3.org/2000/svg"
   xmlns="http://www.w3.org/2000/svg"
   xmlns:xlink="http://www.w3.org/1999/xlink"
   xmlns:sodipodi="http://sodipodi.sourceforge.net/DTD/sodipodi-0.dtd"
   xmlns:inkscape="http://www.inkscape.org/namespaces/inkscape"
   width="1280"
   height="530"
   viewBox="0 0 1280 530.00001"
   id="svg4145"
   version="1.1"
   inkscape:version="0.91 r13725"
   sodipodi:docname="stage1-bg1.svg">
  <defs
     id="defs4147">
    <pattern
       inkscape:collect="always"
       xlink:href="#pattern4876"
       id="pattern4890" />
    <pattern
       patternUnits="userSpaceOnUse"
       width="1280"
       height="530.00002"
       patternTransform="translate(0,522.36218)"
       id="pattern4714">
      <g
         id="g4709"
         transform="translate(0,-522.36218)">
        <path
           style="display:inline;opacity:1;fill:#90ccd2;fill-opacity:1;stroke:none;stroke-width:2;stroke-miterlimit:4;stroke-dasharray:none;stroke-opacity:1"
           d="m 0,522.36218 0,530.00002 1280,0 0,-530.00002 -1280,0 z"
           id="rect4802-7-3-7-8-2-7-8-8"
           inkscape:connector-curvature="0" />
        <path
           style="display:inline;fill:#c0e8ec;fill-opacity:1;fill-rule:evenodd;stroke:none;stroke-width:1px;stroke-linecap:butt;stroke-linejoin:miter;stroke-opacity:1"
           d="M 181.31248,522.36218 0,629.6302 l 0,290.23198 230.40624,-397.5 -49.09376,0 z M 0,919.86218 799.99999,1052.3622 559.99999,681.36218 0,919.86218 Z m 559.99999,-238.5 208,-66.25 -128,0 -80,66.25 z m 80,-66.25 112,-92.75 -112,0 0,92.75 z m 389.81251,-92.75 58.1875,225.25 45.7187,-225.25 -103.9062,0 z m 58.1875,225.25 192,172.22483 0,-290.23198 -192,118.00715 z"
           id="path6873-47"
           inkscape:connector-curvature="0" />
        <path
           style="display:inline;fill:#e9fafb;fill-opacity:1;fill-rule:evenodd;stroke:none;stroke-width:1px;stroke-linecap:butt;stroke-linejoin:miter;stroke-opacity:1"
           d="M 0,522.36218 0,629.60503 181.28128,522.36218 0,522.36218 Z m 230.40624,0 L 0,919.86218 c 187.22832,-74.66772 376.6904,-157.5425 559.99999,-238.5 l -239.96879,-159 -89.62496,0 z m 329.59375,159 528.00001,66.25 -58.1875,-225.2235 -213.81251,0 -48,92.75 -208,66.25 z m 208,-66.25 -16,-92.75 -112,92.75 128,0 z m 320.00001,132.5 192,-118.03365 0,-107.21635 -146.2813,0 -45.7187,225.25 z m 0,0 -288.00001,304.75002 320.00001,0 -32,-304.75002 z M 799.99999,1052.3622 0,919.86218 l 213.34368,132.50002 586.65631,0 z"
           id="path6852-8"
           inkscape:connector-curvature="0" />
      </g>
    </pattern>
    <pattern
       patternUnits="userSpaceOnUse"
       width="1280"
       height="530.00002"
       patternTransform="translate(0,522.36218)"
       id="pattern5489">
      <g
         id="g5484"
         transform="translate(0,-522.36218)">
        <path
           style="display:inline;opacity:1;fill:#5ea5ac;fill-opacity:1;stroke:none;stroke-width:2;stroke-miterlimit:4;stroke-dasharray:none;stroke-opacity:1"
           d="m 0,522.36218 0,530.00002 1280,0 0,-530.00002 -1280,0 z"
           id="rect4802-7-3-7-8-2-7-8-8-9"
           inkscape:connector-curvature="0" />
        <path
           style="display:inline;fill:#90ccd2;fill-opacity:1;fill-rule:evenodd;stroke:none;stroke-width:1px;stroke-linecap:butt;stroke-linejoin:miter;stroke-opacity:1"
           d="M 181.31248,522.36218 0,629.6302 l 0,290.23198 230.40624,-397.5 -49.09376,0 z M 0,919.86218 800.00003,1052.3622 560.00003,681.36218 0,919.86218 Z m 560.00003,-238.5 208,-66.25 -128,0 -80,66.25 z m 80,-66.25 112,-92.75 -112,0 0,92.75 z m 389.81247,-92.75 58.1875,225.25 45.7187,-225.25 -103.9062,0 z m 58.1875,225.25 192,172.22483 0,-290.23198 -192,118.00715 z"
           id="path6873-47-0"
           inkscape:connector-curvature="0" />
        <path
           style="display:inline;fill:#c0e8ec;fill-opacity:1;fill-rule:evenodd;stroke:none;stroke-width:1px;stroke-linecap:butt;stroke-linejoin:miter;stroke-opacity:1"
           d="M 0,522.36218 0,629.60503 181.28128,522.36218 0,522.36218 Z m 230.40624,0 L 0,919.86218 c 187.22832,-74.66772 376.6904,-157.5425 560.00003,-238.5 l -239.96883,-159 -89.62496,0 z m 329.59379,159 527.99997,66.25 -58.1875,-225.2235 -213.81247,0 -48,92.75 -208,66.25 z m 208,-66.25 -16,-92.75 -112,92.75 128,0 z m 319.99997,132.5 192,-118.03365 0,-107.21635 -146.2813,0 -45.7187,225.25 z m 0,0 -287.99997,304.75002 319.99997,0 -32,-304.75002 z M 800.00003,1052.3622 0,919.86218 l 213.34368,132.50002 586.65635,0 z"
           id="path6852-8-4"
           inkscape:connector-curvature="0" />
      </g>
    </pattern>
    <pattern
       patternUnits="userSpaceOnUse"
       width="1280"
       height="530.00002"
       patternTransform="translate(0,522.36218)"
       id="pattern4876">
      <g
         id="g4871"
         transform="translate(0,-522.36218)">
        <path
           style="display:inline;opacity:1;fill:#5ea5ac;fill-opacity:1;stroke:none;stroke-width:2;stroke-miterlimit:4;stroke-dasharray:none;stroke-opacity:1"
           d="m 0,522.36218 0,530.00002 1280,0 0,-530.00002 -1280,0 z"
           id="rect4802-7-3-7-8-2-7-8-8-4"
           inkscape:connector-curvature="0" />
        <path
           style="display:inline;fill:#90ccd2;fill-opacity:1;fill-rule:evenodd;stroke:none;stroke-width:1px;stroke-linecap:butt;stroke-linejoin:miter;stroke-opacity:1"
           d="M 181.31248,522.36218 0,629.6302 l 0,290.23198 230.40624,-397.5 -49.09376,0 z M 0,919.86218 800,1052.3622 560,681.36218 0,919.86218 Z m 560,-238.5 208,-66.25 -128,0 -80,66.25 z m 80,-66.25 112,-92.75 -112,0 0,92.75 z m 389.8125,-92.75 58.1875,225.25 45.7187,-225.25 -103.9062,0 z m 58.1875,225.25 192,172.22483 0,-290.23198 -192,118.00715 z"
           id="path6873-47-1"
           inkscape:connector-curvature="0" />
        <path
           style="display:inline;fill:#c0e8ec;fill-opacity:1;fill-rule:evenodd;stroke:none;stroke-width:1px;stroke-linecap:butt;stroke-linejoin:miter;stroke-opacity:1"
           d="M 0,522.36218 0,629.60503 181.28128,522.36218 0,522.36218 Z m 230.40624,0 L 0,919.86218 c 187.22832,-74.66773 376.6904,-157.5425 560,-238.5 l -239.9688,-159 -89.62496,0 z m 329.59376,159 528,66.25 -58.1875,-225.2235 -213.8125,0 -48,92.75 -208,66.25 z m 208,-66.25 -16,-92.75 -112,92.75 128,0 z m 320,132.5 192,-118.03365 0,-107.21635 -146.2813,0 -45.7187,225.25 z m 0,0 -288,304.75002 320,0 -32,-304.75002 z M 800,1052.3622 0,919.86218 l 213.34368,132.50002 586.65632,0 z"
           id="path6852-8-2"
           inkscape:connector-curvature="0" />
      </g>
    </pattern>
  </defs>
  <sodipodi:namedview
     id="base"
     pagecolor="#ffffff"
     bordercolor="#666666"
     borderopacity="1.0"
     inkscape:pageopacity="0.0"
     inkscape:pageshadow="2"
     inkscape:zoom="0.49497475"
     inkscape:cx="652.03684"
     inkscape:cy="224.80448"
     inkscape:document-units="px"
     inkscape:current-layer="layer1"
     showgrid="false"
     units="px"
     inkscape:window-width="1366"
     inkscape:window-height="706"
     inkscape:window-x="-8"
     inkscape:window-y="-8"
     inkscape:window-maximized="1" />
  <metadata
     id="metadata4150">
    <rdf:RDF>
      <cc:Work
         rdf:about="">
        <dc:format>image/svg+xml</dc:format>
        <dc:type
           rdf:resource="http://purl.org/dc/dcmitype/StillImage" />
        <dc:title />
      </cc:Work>
    </rdf:RDF>
  </metadata>
  <g
     inkscape:label="Layer 1"
     inkscape:groupmode="layer"
     id="layer1"
     transform="translate(0,-522.36218)">
    <path
       style="stroke:none;fill:url(#pattern4890)"
       d="M 1030.709 0.009765625 A 29.999997 34.898113 0 0 0 1015 4.6757812 A 29.999997 34.898113 0 0 0 1000 34.898438 L 1000 164.44141 C 971.47138 158.75826 942.12032 155.67725 911.79492 155.68359 C 842.14742 155.69819 767.37764 171.93694 685.71484 210 C 678.89505 212.26444 671.99846 214.42121 665 216.43555 L 665 117.14258 A 30 32.142998 0 0 0 650 89.306641 A 30 32.142998 0 0 0 635.70898 85.009766 A 30 32.142998 0 0 0 620 89.306641 A 30 32.142998 0 0 0 605 117.14258 L 605 228.4375 C 600.0859 228.946 595.0866 229.33652 590 229.60352 L 590 55.408203 A 30 40.408341 0 0 0 575 20.414062 A 30 40.408341 0 0 0 560.70898 15.011719 A 30 40.408341 0 0 0 545 20.414062 A 30 40.408341 0 0 0 530 55.408203 L 530 226.79297 C 508.47852 223.73196 485.30327 218.3556 460 210 C 405.06155 189.04468 348.28236 177.65864 290 174.0918 L 290 59.898438 A 30 34.898113 0 0 0 275 29.675781 A 30 34.898113 0 0 0 260.70898 25.009766 A 30 34.898113 0 0 0 245 29.675781 A 30 34.898113 0 0 0 230 59.898438 L 230 173.09375 C 197.0778 173.96017 163.72417 177.06686 130 182.10352 L 130 103.06055 A 29.999999 33.061371 0 0 0 115 74.429688 A 29.999999 33.061371 0 0 0 100.70898 70.009766 A 29.999999 33.061371 0 0 0 85 74.429688 A 29.999999 33.061371 0 0 0 70 103.06055 L 70 192.96289 C 46.81656 197.86273 23.47796 203.56864 0 210 L 0 530 L 1280 530 L 1280 210 C 1250.872 223.69516 1219.0632 227.23069 1185 222.74805 L 1185 93.060547 A 30 33.061372 0 0 0 1170 64.429688 A 30 33.061372 0 0 0 1155.709 60.009766 A 30 33.061372 0 0 0 1140 64.429688 A 30 33.061372 0 0 0 1125 93.060547 L 1125 206.89258 C 1103.7513 196.76119 1082.1094 187.87432 1060 180.46875 L 1060 34.898438 A 29.999997 34.898113 0 0 0 1045 4.6757812 A 29.999997 34.898113 0 0 0 1030.709 0.009765625 z "
       transform="translate(0,522.36218)"
       id="rect4882" />
  </g>
</svg>
